<svg width="33" height="32" viewBox="0 0 33 32" fill="none" xmlns="http://www.w3.org/2000/svg">
<path d="M14.3463 13.7365C14.9529 14.8091 13.5964 15.1416 12.9598 15.2028C11.9952 15.2969 11.7955 14.7385 11.9839 14.0369C12.0457 13.7857 12.183 13.5597 12.377 13.3896C12.571 13.2194 12.8125 13.1133 13.0686 13.0857C13.3209 13.0625 13.5747 13.1112 13.8007 13.2263C14.0267 13.3414 14.2158 13.5183 14.3463 13.7365Z" fill="black"/>
<path d="M18.1331 11.752C17.4281 17.1689 26.9322 16.0416 26.7513 20.3529C27.6888 19.1287 28.0919 15.8024 25.3319 14.0903C22.8729 12.5637 19.6687 13.3991 18.1331 11.752Z" fill="black"/>
<path d="M23.6074 9.70952C23.5455 9.65207 23.4818 9.59557 23.4199 9.53906C23.4827 9.59651 23.5455 9.65678 23.6074 9.70952Z" fill="black"/>

<path d="M13.4856 26.8466C13.231 26.6491 13.0046 26.4174 12.8125 26.1582C13.0186 26.405 13.2436 26.6352 13.4856 26.8466Z" fill="black"/>
</svg>
