<svg width="99" height="16" xmlns="http://www.w3.org/2000/svg">
 <mask height="16" width="99" y="-0.03711" x="-0.49414" maskUnits="userSpaceOnUse" id="path-1-outside-1">
  <rect id="svg_1" height="16" width="99" y="-0.03711" x="-0.49414" fill="white"/>
  <path id="svg_2" d="m46.1805,1.05353c-2.2747,0.57315 -3.3409,2.35678 -2.6944,4.50716c0.277,0.92142 1.1291,1.85097 2.334,2.54614c2.1715,1.25277 2.8109,1.76012 3.1823,2.52447c0.3098,0.6377 0.3367,0.8509 0.1804,1.4289c-0.3666,1.3568 -1.324,2.1051 -2.6937,2.1051c-1.398,0 -2.3797,-0.7842 -2.5988,-2.076c-0.0879,-0.5194 -0.1964,-0.6853 -0.4473,-0.6853c-0.2998,0 -0.3312,0.1374 -0.3312,1.4532l0,1.4529l0.9093,0.3089c1.4199,0.4822 3.4395,0.4246 4.6446,-0.1325c2.3476,-1.0854 3.2474,-3.2398 2.1937,-5.25276c-0.394,-0.75297 -1.383,-1.59341 -3.0774,-2.61545c-1.7807,-1.07432 -2.5743,-1.85577 -2.6907,-2.64999c-0.1788,-1.22051 0.919,-2.23064 2.4194,-2.22632c1.1751,0.00328 1.6794,0.28149 2.096,1.15613c0.2608,0.54761 0.4475,0.72862 0.7563,0.73345c0.3415,0.00518 0.3925,-0.0585 0.3053,-0.38209c-0.0573,-0.21348 -0.1054,-0.74882 -0.1066,-1.1896c-0.0018,-0.55968 -0.0827,-0.83203 -0.2685,-0.90296c-0.5061,-0.19364 -3.4603,-0.26785 -4.1127,-0.10338zm-45.67464,0.51327c0,0.24835 0.11552,0.34516 0.41186,0.34516c0.83618,0 0.88104,0.24129 0.9737,5.24652c0.08088,4.37272 0.11084,4.72192 0.46035,5.36732c0.50071,0.9245 1.17981,1.5397 2.22417,2.0152c0.71547,0.3257 1.16716,0.3947 2.59793,0.3977c1.55217,0.0029 1.835,-0.0472 2.72436,-0.4824c0.54577,-0.267 1.22557,-0.7675 1.51057,-1.1122c0.9885,-1.1947 1.0931,-1.7722 1.2051,-6.64951c0.1079,-4.69666 0.1226,-4.77297 0.9249,-4.78005c0.1867,-0.00155 0.3031,-0.13512 0.3031,-0.34774c0,-0.32601 -0.1155,-0.34516 -2.0784,-0.34516c-1.94009,0 -2.0783,0.02225 -2.0783,0.33428c0,0.25024 0.14028,0.34776 0.5589,0.38831c0.9198,0.08888 0.9945,0.44237 0.9973,4.72552c0.0029,4.34235 -0.1454,5.17775 -1.0752,6.05705c-0.86463,0.8179 -1.55273,1.0934 -2.73081,1.0934c-1.69211,0 -2.89132,-0.7877 -3.28447,-2.1573c-0.13232,-0.4606 -0.18099,-2.15455 -0.14635,-5.09122l0.05179,-4.40085l0.60618,-0.19483c0.3334,-0.10718 0.6313,-0.32067 0.66212,-0.47462c0.04954,-0.24731 -0.22636,-0.27974 -2.38143,-0.27974c-2.32185,0 -2.43737,0.01639 -2.43737,0.34516zm16.10714,0c0,0.26716 0.1155,0.34516 0.5114,0.34516c0.882,0 1.3787,0.33897 1.578,1.07676c0.1135,0.41955 0.1623,2.42321 0.1291,5.28687c-0.0595,5.11311 -0.1296,5.44761 -1.1871,5.65831c-0.3487,0.0695 -0.5118,0.2052 -0.5118,0.4256c0,0.301 0.1694,0.3235 2.4247,0.3235c2.2157,0 2.4247,-0.0265 2.4247,-0.3094c0,-0.2202 -0.2218,-0.3684 -0.7703,-0.5146c-0.6812,-0.1816 -0.7914,-0.2807 -0.9517,-0.8555c-0.2056,-0.7378 -0.2543,-8.51072 -0.0532,-8.48829c0.0713,0.00794 0.7432,0.72637 1.4929,1.59636c0.7496,0.86999 2.8006,3.15445 4.5577,5.07663c2.7501,3.0085 3.2645,3.4948 3.6966,3.4948l0.502,0l0.0497,-6.11814c0.0351,-4.34407 0.1077,-6.17604 0.2499,-6.31773c0.1103,-0.10976 0.461,-0.25266 0.7794,-0.31755c0.3379,-0.06886 0.579,-0.22299 0.579,-0.36986c0,-0.20606 -0.4318,-0.26043 -2.3815,-0.29978c-2.2929,-0.04625 -2.3814,-0.03504 -2.3814,0.30202c0,0.25611 0.1134,0.35 0.4233,0.35c0.2329,0 0.642,0.18726 0.9093,0.41628l0.4859,0.41627l0.0546,4.15715c0.031,2.34712 -0.0123,4.15724 -0.0991,4.15724c-0.0845,0 -0.6133,-0.5242 -1.1751,-1.16502c-0.5617,-0.6408 -2.1613,-2.4075 -3.5547,-3.92623c-1.3933,-1.51872 -2.9155,-3.20158 -3.3825,-3.73952l-0.8493,-0.97819l-1.7753,-0.01415c-1.6645,-0.01329 -1.7752,0.00742 -1.7752,0.33101zm18.1855,0c0,0.26319 0.1155,0.34516 0.4865,0.34516c0.2676,0 0.6377,0.1101 0.8227,0.24472c0.3172,0.23109 0.3392,0.52899 0.3903,5.30693c0.064,5.96619 0.0115,6.30059 -1.0133,6.46389c-0.5161,0.0823 -0.6862,0.1895 -0.6862,0.4325c0,0.3013 0.1746,0.323 2.5979,0.323c2.4824,0 2.5979,-0.0153 2.5979,-0.3451c0,-0.2456 -0.1155,-0.3452 -0.3999,-0.3452c-0.2199,0 -0.5511,-0.1101 -0.7361,-0.2447c-0.3185,-0.2319 -0.3387,-0.5303 -0.3864,-5.68829c-0.0488,-5.28378 -0.04,-5.45378 0.3031,-5.79566c0.1944,-0.19364 0.5482,-0.35209 0.7863,-0.35209c0.3175,0 0.433,-0.09198 0.433,-0.34516c0,-0.3298 -0.1155,-0.34516 -2.5979,-0.34516c-2.4824,0 -2.5979,0.01536 -2.5979,0.34516zm18.1352,0c0.0561,0.21383 0.2363,0.34516 0.4732,0.34516c0.2104,0 0.553,0.1807 0.7614,0.40178c0.2116,0.22436 1.3957,3.06144 2.6833,6.42869l2.3047,6.02687l0.6043,0.0517l0.6042,0.0516l1.6191,-4.2799c0.8905,-2.35385 1.7125,-4.46611 1.8268,-4.69392c0.1959,-0.39004 0.2396,-0.33064 0.76,1.03552c0.3036,0.79733 1.1121,2.90577 1.7964,4.6854l1.244,3.2359l0.5482,0c0.3017,0 0.588,-0.1031 0.6367,-0.2293c0.0485,-0.126 0.8443,-2.1647 1.7683,-4.5303c0.9242,-2.36544 1.9477,-4.98609 2.2747,-5.82346c0.7448,-1.90686 0.8939,-2.14226 1.4876,-2.3485c0.264,-0.09164 0.4799,-0.28716 0.4799,-0.43454c0,-0.22712 -0.3154,-0.26786 -2.0783,-0.26786c-1.9628,0 -2.0784,0.01915 -2.0784,0.34516c0,0.25007 0.1156,0.34516 0.4188,0.34516c0.6732,0 0.9668,0.18225 0.9668,0.60042c0,0.34896 -3.2988,9.30252 -3.5022,9.50492c-0.1248,0.1245 -3.1036,-8.19276 -3.2113,-8.96662c-0.1047,-0.75177 0.2164,-1.13872 0.9446,-1.13872c0.2843,0 0.3999,-0.09958 0.3999,-0.34516c0,-0.33032 -0.1156,-0.34516 -2.6846,-0.34516c-2.569,0 -2.6845,0.01484 -2.6845,0.34516c0,0.19674 0.1155,0.34516 0.2685,0.34516c0.5407,0 1.2574,0.52051 1.4416,1.04723c0.2645,0.75574 0.0622,1.52198 -1.495,5.66568l-1.3228,3.52023l-0.2849,-0.6726c-0.1568,-0.3699 -0.9724,-2.55232 -1.8122,-4.84974c-1.6502,-4.51337 -1.6746,-4.7108 -0.5843,-4.7108c0.3829,0 0.4984,-0.0799 0.4984,-0.34516c0,-0.3298 -0.1155,-0.34516 -2.5816,-0.34516c-2.4965,0 -2.5787,0.01139 -2.4913,0.34516zm35.0748,0.11914c0,0 -0.0002,0.23561 0.0288,0.30117c0.029,0.06555 0.2153,0.09018 0.2153,0.09018c0.1156,0.03102 0.2256,0.05826 0.3295,0.08398c0.5234,0.12962 0.8911,0.22067 1.038,0.56431c0.0993,0.23214 0.1055,1.03932 0.1067,5.36654c0.0013,4.56288 0.0004,5.12208 -0.1217,5.42358c-0.1514,0.3739 -0.4412,0.5724 -1.1098,0.7602c0,0 -0.2958,0.0823 -0.3754,0.1559c-0.0796,0.0735 -0.0946,0.2379 -0.0946,0.2379c0,0 -0.0063,0.1526 0.0619,0.2258c0.0682,0.0732 0.2501,0.0383 0.2501,0.0383l1.7332,0.0046l2.8747,0.0232c0,0 0.1175,0.0156 0.1784,-0.0622c0.0609,-0.0777 0.0454,-0.2301 0.0454,-0.2301c0,0 0,-0.163 -0.0758,-0.2364c-0.0757,-0.0734 -0.3694,-0.1423 -0.3694,-0.1423c-0.6492,-0.1598 -0.9823,-0.368 -1.1296,-0.7061c-0.1095,-0.2512 -0.1212,-0.9296 -0.1377,-2.3424l0,-2.07134c0.0726,0.04093 0.1389,0.08734 0.209,0.13637c0.3313,0.23186 0.7463,0.5222 2.2963,0.56706c1.8779,0.05435 3.0075,-0.78123 3.6794,-1.75172c0.6718,-0.9705 0.9324,-2.49521 0.4395,-4.11944c-0.4929,-1.62424 -1.9392,-2.60716 -3.9725,-2.70877c-1.0599,-0.05296 -2.6019,-0.00066 -3.4637,0.03844l-0.2414,0.01083c-0.783,0.03416 -1.7213,0.10902 -2.1888,0.15349l-0.0014,0.00013c-0.1272,0.0121 -0.1398,0.0133 -0.1754,0.05848c-0.0357,0.04534 -0.029,0.13031 -0.029,0.13031zm7.6312,6.36255c0.7554,-0.7101 0.7679,-1.82089 0.7679,-2.5305c-0.0741,-1.11267 -0.5225,-3.2525 -3.0621,-3.2525c-0.5937,-0.0305 -1.8086,0.07197 -1.8422,0.89562c-0.0368,0.14549 -0.0532,1.16326 -0.0438,2.72524l0.015,2.49299l0.2585,0.13615l0.0139,0.00737c0.1403,0.07405 0.3223,0.17017 0.6405,0.23247c1.0096,0.19772 2.4969,0.00327 3.2523,-0.70684zm-15.8899,-6.60916c0.1881,-0.07127 0.3121,-0.11888 0.3121,-0.11888c0,0 0.2811,-0.11554 0.3719,0c0.028,0.03559 0.1299,0.29867 0.3826,0.95074c0.0495,0.12792 0.1049,0.27081 0.1667,0.42989c0.3765,0.96999 0.9174,2.3623 1.2021,3.09405c0.2846,0.73174 0.8475,2.17975 1.251,3.21781c0.4034,1.03806 0.9213,2.36976 1.1507,2.95926c0.2296,0.5896 0.5228,1.2026 0.6048,1.3144c0.0403,0.0549 0.0815,0.1232 0.1266,0.198c0.1772,0.2936 0.4149,0.6876 0.8924,0.7647c0,0 0.3738,0.0618 0.4292,0.1204c0.0553,0.0586 0.0679,0.1651 0.0679,0.1651l0,0.2c0,0 -0.0064,0.0511 -0.0371,0.0946c-0.0308,0.0434 -0.1438,0.0313 -0.1438,0.0313l-2.8823,0.0002l-2.0505,0.0148c0,0 -0.0716,0.0087 -0.1138,-0.0262c-0.0423,-0.0349 -0.0642,-0.1232 -0.0642,-0.1232l0,-0.1507c0,0 -0.0177,-0.1132 0.0642,-0.2118c0.0819,-0.0985 0.4112,-0.1099 0.4112,-0.1099c0.6207,-0.0539 0.8671,-0.5827 0.9939,-0.8549c0.0095,-0.0203 0.0183,-0.0392 0.0265,-0.0564c0.1352,-0.2814 0.0864,-0.4647 -0.5243,-1.969c-0.403,-0.9928 -0.5403,-1.2716 -0.6383,-1.2964c-0.0687,-0.0174 -1.1414,-0.0238 -2.3839,-0.0143l-2.2588,0.0172l-0.1351,0.3713c-0.3906,1.0739 -0.7375,2.1408 -0.7898,2.4293c-0.1065,0.5869 0.042,1.2396 0.9051,1.3531c0,0 0.32,0.0441 0.4054,0.1085c0.0853,0.0644 0.1153,0.2294 0.1153,0.2294l0,0.1521c0,0 -0.0163,0.0724 -0.0751,0.1211c-0.0587,0.0488 -0.2112,0.031 -0.2112,0.031l-2.1559,0l-2.0858,0.0237c0,0 -0.0891,-0.002 -0.1549,-0.0369c-0.0658,-0.0349 -0.0763,-0.105 -0.0763,-0.105l0,-0.1445c0,0 -0.0113,-0.0938 0.1048,-0.2085c0.1162,-0.1148 0.4297,-0.1455 0.4297,-0.1455c0.5702,-0.0918 0.8931,-0.6987 1.079,-1.0479c0.0137,-0.0258 0.0267,-0.0502 0.0389,-0.0728c0.0737,-0.136 0.4059,-0.9296 0.7383,-1.7635c0.3324,-0.8338 0.7055,-1.76667 0.829,-2.07298c0.4201,-1.04153 0.8194,-2.03936 1.4238,-3.55817c0.3318,-0.83385 0.823,-2.06467 1.0916,-2.73515l0.4883,-1.2191l0.6781,-0.35027zm-0.1779,2.96331c0.1046,0.26367 0.2648,0.66046 0.3558,0.88169c0.0911,0.22122 0.346,0.84777 0.5664,1.39232c0.2204,0.54456 0.4912,1.20724 0.6018,1.47265c0.1106,0.26547 0.2012,0.49517 0.2012,0.51052c0,0.01541 -0.8302,0.02798 -1.8448,0.02798c-1.1648,0 -1.8448,-0.02236 -1.8448,-0.06066c0,-0.03335 0.039,-0.16558 0.0867,-0.29392c0.0758,-0.20409 0.4544,-1.28744 1.2904,-3.69332c0.129,-0.37148 0.2488,-0.69914 0.266,-0.7281c0.0588,-0.09907 0.1311,0.01132 0.3213,0.49084z" clip-rule="evenodd" fill-rule="evenodd"/>
 </mask>

 <g>
  <title>background</title>
  <rect fill="none" id="canvas_background" height="602" width="802" y="-1" x="-1"/>
 </g>
 <g>
  <title>Layer 1</title>
  <path id="svg_3" fill="black" d="m46.1805,1.05353c-2.2747,0.57315 -3.3409,2.35678 -2.6944,4.50716c0.277,0.92142 1.1291,1.85097 2.334,2.54614c2.1715,1.25277 2.8109,1.76012 3.1823,2.52447c0.3098,0.6377 0.3367,0.8509 0.1804,1.4289c-0.3666,1.3568 -1.324,2.1051 -2.6937,2.1051c-1.398,0 -2.3797,-0.7842 -2.5988,-2.076c-0.0879,-0.5194 -0.1964,-0.6853 -0.4473,-0.6853c-0.2998,0 -0.3312,0.1374 -0.3312,1.4532l0,1.4529l0.9093,0.3089c1.4199,0.4822 3.4395,0.4246 4.6446,-0.1325c2.3476,-1.0854 3.2474,-3.2398 2.1937,-5.25276c-0.394,-0.75297 -1.383,-1.59341 -3.0774,-2.61545c-1.7807,-1.07432 -2.5743,-1.85577 -2.6907,-2.64999c-0.1788,-1.22051 0.919,-2.23064 2.4194,-2.22632c1.1751,0.00328 1.6794,0.28149 2.096,1.15613c0.2608,0.54761 0.4475,0.72862 0.7563,0.73345c0.3415,0.00518 0.3925,-0.0585 0.3053,-0.38209c-0.0573,-0.21348 -0.1054,-0.74882 -0.1066,-1.1896c-0.0018,-0.55968 -0.0827,-0.83203 -0.2685,-0.90296c-0.5061,-0.19364 -3.4603,-0.26785 -4.1127,-0.10338zm-45.67464,0.51327c0,0.24835 0.11552,0.34516 0.41186,0.34516c0.83618,0 0.88104,0.24129 0.9737,5.24652c0.08088,4.37272 0.11084,4.72192 0.46035,5.36732c0.50071,0.9245 1.17981,1.5397 2.22417,2.0152c0.71547,0.3257 1.16716,0.3947 2.59793,0.3977c1.55217,0.0029 1.835,-0.0472 2.72436,-0.4824c0.54577,-0.267 1.22557,-0.7675 1.51057,-1.1122c0.9885,-1.1947 1.0931,-1.7722 1.2051,-6.64951c0.1079,-4.69666 0.1226,-4.77297 0.9249,-4.78005c0.1867,-0.00155 0.3031,-0.13512 0.3031,-0.34774c0,-0.32601 -0.1155,-0.34516 -2.0784,-0.34516c-1.94009,0 -2.0783,0.02225 -2.0783,0.33428c0,0.25024 0.14028,0.34776 0.5589,0.38831c0.9198,0.08888 0.9945,0.44237 0.9973,4.72552c0.0029,4.34235 -0.1454,5.17775 -1.0752,6.05705c-0.86463,0.8179 -1.55273,1.0934 -2.73081,1.0934c-1.69211,0 -2.89132,-0.7877 -3.28447,-2.1573c-0.13232,-0.4606 -0.18099,-2.15455 -0.14635,-5.09122l0.05179,-4.40085l0.60618,-0.19483c0.3334,-0.10718 0.6313,-0.32067 0.66212,-0.47462c0.04954,-0.24731 -0.22636,-0.27974 -2.38143,-0.27974c-2.32185,0 -2.43737,0.01639 -2.43737,0.34516zm16.10714,0c0,0.26716 0.1155,0.34516 0.5114,0.34516c0.882,0 1.3787,0.33897 1.578,1.07676c0.1135,0.41955 0.1623,2.42321 0.1291,5.28687c-0.0595,5.11311 -0.1296,5.44761 -1.1871,5.65831c-0.3487,0.0695 -0.5118,0.2052 -0.5118,0.4256c0,0.301 0.1694,0.3235 2.4247,0.3235c2.2157,0 2.4247,-0.0265 2.4247,-0.3094c0,-0.2202 -0.2218,-0.3684 -0.7703,-0.5146c-0.6812,-0.1816 -0.7914,-0.2807 -0.9517,-0.8555c-0.2056,-0.7378 -0.2543,-8.51072 -0.0532,-8.48829c0.0713,0.00794 0.7432,0.72637 1.4929,1.59636c0.7496,0.86999 2.8006,3.15445 4.5577,5.07663c2.7501,3.0085 3.2645,3.4948 3.6966,3.4948l0.502,0l0.0497,-6.11814c0.0351,-4.34407 0.1077,-6.17604 0.2499,-6.31773c0.1103,-0.10976 0.461,-0.25266 0.7794,-0.31755c0.3379,-0.06886 0.579,-0.22299 0.579,-0.36986c0,-0.20606 -0.4318,-0.26043 -2.3815,-0.29978c-2.2929,-0.04625 -2.3814,-0.03504 -2.3814,0.30202c0,0.25611 0.1134,0.35 0.4233,0.35c0.2329,0 0.642,0.18726 0.9093,0.41628l0.4859,0.41627l0.0546,4.15715c0.031,2.34712 -0.0123,4.15724 -0.0991,4.15724c-0.0845,0 -0.6133,-0.5242 -1.1751,-1.16502c-0.5617,-0.6408 -2.1613,-2.4075 -3.5547,-3.92623c-1.3933,-1.51872 -2.9155,-3.20158 -3.3825,-3.73952l-0.8493,-0.97819l-1.7753,-0.01415c-1.6645,-0.01329 -1.7752,0.00742 -1.7752,0.33101zm18.1855,0c0,0.26319 0.1155,0.34516 0.4865,0.34516c0.2676,0 0.6377,0.1101 0.8227,0.24472c0.3172,0.23109 0.3392,0.52899 0.3903,5.30693c0.064,5.96619 0.0115,6.30059 -1.0133,6.46389c-0.5161,0.0823 -0.6862,0.1895 -0.6862,0.4325c0,0.3013 0.1746,0.323 2.5979,0.323c2.4824,0 2.5979,-0.0153 2.5979,-0.3451c0,-0.2456 -0.1155,-0.3452 -0.3999,-0.3452c-0.2199,0 -0.5511,-0.1101 -0.7361,-0.2447c-0.3185,-0.2319 -0.3387,-0.5303 -0.3864,-5.68829c-0.0488,-5.28378 -0.04,-5.45378 0.3031,-5.79566c0.1944,-0.19364 0.5482,-0.35209 0.7863,-0.35209c0.3175,0 0.433,-0.09198 0.433,-0.34516c0,-0.3298 -0.1155,-0.34516 -2.5979,-0.34516c-2.4824,0 -2.5979,0.01536 -2.5979,0.34516zm18.1352,0c0.0561,0.21383 0.2363,0.34516 0.4732,0.34516c0.2104,0 0.553,0.1807 0.7614,0.40178c0.2116,0.22436 1.3957,3.06144 2.6833,6.42869l2.3047,6.02687l0.6043,0.0517l0.6042,0.0516l1.6191,-4.2799c0.8905,-2.35385 1.7125,-4.46611 1.8268,-4.69392c0.1959,-0.39004 0.2396,-0.33064 0.76,1.03552c0.3036,0.79733 1.1121,2.90577 1.7964,4.6854l1.244,3.2359l0.5482,0c0.3017,0 0.588,-0.1031 0.6367,-0.2293c0.0485,-0.126 0.8443,-2.1647 1.7683,-4.5303c0.9242,-2.36544 1.9477,-4.98609 2.2747,-5.82346c0.7448,-1.90686 0.8939,-2.14226 1.4876,-2.3485c0.264,-0.09164 0.4799,-0.28716 0.4799,-0.43454c0,-0.22712 -0.3154,-0.26786 -2.0783,-0.26786c-1.9628,0 -2.0784,0.01915 -2.0784,0.34516c0,0.25007 0.1156,0.34516 0.4188,0.34516c0.6732,0 0.9668,0.18225 0.9668,0.60042c0,0.34896 -3.2988,9.30252 -3.5022,9.50492c-0.1248,0.1245 -3.1036,-8.19276 -3.2113,-8.96662c-0.1047,-0.75177 0.2164,-1.13872 0.9446,-1.13872c0.2843,0 0.3999,-0.09958 0.3999,-0.34516c0,-0.33032 -0.1156,-0.34516 -2.6846,-0.34516c-2.569,0 -2.6845,0.01484 -2.6845,0.34516c0,0.19674 0.1155,0.34516 0.2685,0.34516c0.5407,0 1.2574,0.52051 1.4416,1.04723c0.2645,0.75574 0.0622,1.52198 -1.495,5.66568l-1.3228,3.52023l-0.2849,-0.6726c-0.1568,-0.3699 -0.9724,-2.55232 -1.8122,-4.84974c-1.6502,-4.51337 -1.6746,-4.7108 -0.5843,-4.7108c0.3829,0 0.4984,-0.0799 0.4984,-0.34516c0,-0.3298 -0.1155,-0.34516 -2.5816,-0.34516c-2.4965,0 -2.5787,0.01139 -2.4913,0.34516zm35.0748,0.11914c0,0 -0.0002,0.23561 0.0288,0.30117c0.029,0.06555 0.2153,0.09018 0.2153,0.09018c0.1156,0.03102 0.2256,0.05826 0.3295,0.08398c0.5234,0.12962 0.8911,0.22067 1.038,0.56431c0.0993,0.23214 0.1055,1.03932 0.1067,5.36654c0.0013,4.56288 0.0004,5.12208 -0.1217,5.42358c-0.1514,0.3739 -0.4412,0.5724 -1.1098,0.7602c0,0 -0.2958,0.0823 -0.3754,0.1559c-0.0796,0.0735 -0.0946,0.2379 -0.0946,0.2379c0,0 -0.0063,0.1526 0.0619,0.2258c0.0682,0.0732 0.2501,0.0383 0.2501,0.0383l1.7332,0.0046l2.8747,0.0232c0,0 0.1175,0.0156 0.1784,-0.0622c0.0609,-0.0777 0.0454,-0.2301 0.0454,-0.2301c0,0 0,-0.163 -0.0758,-0.2364c-0.0757,-0.0734 -0.3694,-0.1423 -0.3694,-0.1423c-0.6492,-0.1598 -0.9823,-0.368 -1.1296,-0.7061c-0.1095,-0.2512 -0.1212,-0.9296 -0.1377,-2.3424l0,-2.07134c0.0726,0.04093 0.1389,0.08734 0.209,0.13637c0.3313,0.23186 0.7463,0.5222 2.2963,0.56706c1.8779,0.05435 3.0075,-0.78123 3.6794,-1.75172c0.6718,-0.9705 0.9324,-2.49521 0.4395,-4.11944c-0.4929,-1.62424 -1.9392,-2.60716 -3.9725,-2.70877c-1.0599,-0.05296 -2.6019,-0.00066 -3.4637,0.03844l-0.2414,0.01083c-0.783,0.03416 -1.7213,0.10902 -2.1888,0.15349l-0.0014,0.00013c-0.1272,0.0121 -0.1398,0.0133 -0.1754,0.05848c-0.0357,0.04534 -0.029,0.13031 -0.029,0.13031zm7.6312,6.36255c0.7554,-0.7101 0.7679,-1.82089 0.7679,-2.5305c-0.0741,-1.11267 -0.5225,-3.2525 -3.0621,-3.2525c-0.5937,-0.0305 -1.8086,0.07197 -1.8422,0.89562c-0.0368,0.14549 -0.0532,1.16326 -0.0438,2.72524l0.015,2.49299l0.2585,0.13615l0.0139,0.00737c0.1403,0.07405 0.3223,0.17017 0.6405,0.23247c1.0096,0.19772 2.4969,0.00327 3.2523,-0.70684zm-15.8899,-6.60916c0.1881,-0.07127 0.3121,-0.11888 0.3121,-0.11888c0,0 0.2811,-0.11554 0.3719,0c0.028,0.03559 0.1299,0.29867 0.3826,0.95074c0.0495,0.12792 0.1049,0.27081 0.1667,0.42989c0.3765,0.96999 0.9174,2.3623 1.2021,3.09405c0.2846,0.73174 0.8475,2.17975 1.251,3.21781c0.4034,1.03806 0.9213,2.36976 1.1507,2.95926c0.2296,0.5896 0.5228,1.2026 0.6048,1.3144c0.0403,0.0549 0.0815,0.1232 0.1266,0.198c0.1772,0.2936 0.4149,0.6876 0.8924,0.7647c0,0 0.3738,0.0618 0.4292,0.1204c0.0553,0.0586 0.0679,0.1651 0.0679,0.1651l0,0.2c0,0 -0.0064,0.0511 -0.0371,0.0946c-0.0308,0.0434 -0.1438,0.0313 -0.1438,0.0313l-2.8823,0.0002l-2.0505,0.0148c0,0 -0.0716,0.0087 -0.1138,-0.0262c-0.0423,-0.0349 -0.0642,-0.1232 -0.0642,-0.1232l0,-0.1507c0,0 -0.0177,-0.1132 0.0642,-0.2118c0.0819,-0.0985 0.4112,-0.1099 0.4112,-0.1099c0.6207,-0.0539 0.8671,-0.5827 0.9939,-0.8549c0.0095,-0.0203 0.0183,-0.0392 0.0265,-0.0564c0.1352,-0.2814 0.0864,-0.4647 -0.5243,-1.969c-0.403,-0.9928 -0.5403,-1.2716 -0.6383,-1.2964c-0.0687,-0.0174 -1.1414,-0.0238 -2.3839,-0.0143l-2.2588,0.0172l-0.1351,0.3713c-0.3906,1.0739 -0.7375,2.1408 -0.7898,2.4293c-0.1065,0.5869 0.042,1.2396 0.9051,1.3531c0,0 0.32,0.0441 0.4054,0.1085c0.0853,0.0644 0.1153,0.2294 0.1153,0.2294l0,0.1521c0,0 -0.0163,0.0724 -0.0751,0.1211c-0.0587,0.0488 -0.2112,0.031 -0.2112,0.031l-2.1559,0l-2.0858,0.0237c0,0 -0.0891,-0.002 -0.1549,-0.0369c-0.0658,-0.0349 -0.0763,-0.105 -0.0763,-0.105l0,-0.1445c0,0 -0.0113,-0.0938 0.1048,-0.2085c0.1162,-0.1148 0.4297,-0.1455 0.4297,-0.1455c0.5702,-0.0918 0.8931,-0.6987 1.079,-1.0479c0.0137,-0.0258 0.0267,-0.0502 0.0389,-0.0728c0.0737,-0.136 0.4059,-0.9296 0.7383,-1.7635c0.3324,-0.8338 0.7055,-1.76667 0.829,-2.07298c0.4201,-1.04153 0.8194,-2.03936 1.4238,-3.55817c0.3318,-0.83385 0.823,-2.06467 1.0916,-2.73515l0.4883,-1.2191l0.6781,-0.35027zm-0.1779,2.96331c0.1046,0.26367 0.2648,0.66046 0.3558,0.88169c0.0911,0.22122 0.346,0.84777 0.5664,1.39232c0.2204,0.54456 0.4912,1.20724 0.6018,1.47265c0.1106,0.26547 0.2012,0.49517 0.2012,0.51052c0,0.01541 -0.8302,0.02798 -1.8448,0.02798c-1.1648,0 -1.8448,-0.02236 -1.8448,-0.06066c0,-0.03335 0.039,-0.16558 0.0867,-0.29392c0.0758,-0.20409 0.4544,-1.28744 1.2904,-3.69332c0.129,-0.37148 0.2488,-0.69914 0.266,-0.7281c0.0588,-0.09907 0.1311,0.01132 0.3213,0.49084z" clip-rule="evenodd" fill-rule="evenodd"/>
  <path id="svg_4" mask="url(#path-1-outside-1)" fill="black" d="m43.4861,5.56069l0.0479,-0.01439l0,-0.00001l-0.0479,0.0144zm2.6944,-4.50716l0.0122,0.04849l0,0l-0.0122,-0.04849zm-0.3604,7.0533l-0.025,0.0433l0,0l0.025,-0.0433zm3.1823,2.52447l-0.045,0.0219l0,0l0.045,-0.0219zm0.1804,1.4289l-0.0482,-0.0131l0,0l0.0482,0.0131zm-5.2925,0.0291l-0.0493,0.0084l0.0001,0l0.0492,-0.0084zm-0.7785,2.2208l-0.05,0l0,0.0358l0.034,0.0115l0.016,-0.0473zm0.9093,0.3089l-0.0161,0.0473l0,0l0.0161,-0.0473zm4.6446,-0.1325l0.021,0.0454l0,0l-0.021,-0.0454zm2.1937,-5.25276l-0.0443,0.02319l0,0l0.0443,-0.02319zm-3.0774,-2.61545l-0.0258,0.04282l0,0l0.0258,-0.04282zm-2.6907,-2.64999l-0.0495,0.00724l0,0.00001l0.0495,-0.00725zm2.4194,-2.22632l-0.0002,0.05l0,0l0.0002,-0.05zm2.096,1.15613l-0.0452,0.0215l0,0l0.0452,-0.0215zm0.7563,0.73345l-0.0008,0.04999l0,0l0.0008,-0.04999zm0.3053,-0.38209l-0.0482,0.01297l0,0.00003l0.0482,-0.013zm-0.1066,-1.1896l0.05,-0.00013l0,-0.00002l-0.05,0.00015zm-0.2685,-0.90296l-0.0179,0.0467l0.0001,0.00001l0.0178,-0.04671zm-48.40178,6.00157l0.04999,-0.00092l0,-0.00001l-0.04999,0.00093zm0.46035,5.36732l-0.04397,0.0238l0.00001,0l0.04396,-0.0238zm2.22417,2.0152l-0.02072,0.0455l0.00001,0l0.02071,-0.0455zm2.59793,0.3977l-0.00011,0.05l0.00001,0l0.0001,-0.05zm2.72436,-0.4824l-0.02198,-0.0449l0,0l0.02198,0.0449zm1.51057,-1.1122l-0.0385,-0.0318l0,0l0.0385,0.0318zm1.2051,-6.64951l0.05,0.00115l0,0l-0.05,-0.00115zm0.9249,-4.78005l-0.0004,-0.04999l-0.0001,0l0.0005,0.04999zm-3.2947,0.02969l-0.0048,0.04977l0,0l0.0048,-0.04977zm0.9973,4.72552l-0.05,0.00003l0,0l0.05,-0.00003zm-1.0752,6.05705l-0.0344,-0.0363l0,0l0.0344,0.0363zm-6.01528,-1.0639l0.04806,-0.0138l0,0l-0.04806,0.0138zm-0.14635,-5.09122l0.05,0.00059l0,0l-0.05,-0.00059zm0.05179,-4.40085l-0.0153,-0.0476l-0.03428,0.01101l-0.00042,0.036l0.05,0.00059zm0.60618,-0.19483l0.0153,0.0476l0,0l-0.0153,-0.0476zm0.66212,-0.47462l-0.04902,-0.00982l0,0.00001l0.04902,0.00981zm13.37774,1.48734l-0.0482,0.01304l0,0.00001l0.0482,-0.01305zm0.1291,5.28687l0.0499,0.00058l0,0l-0.0499,-0.00058zm-1.1871,5.65831l-0.0098,-0.049l0,0l0.0098,0.049zm3.5673,-0.0749l-0.0129,0.0483l0,0l0.0129,-0.0483zm-0.9517,-0.8555l-0.0482,0.0134l0,0l0.0482,-0.0134zm-0.0532,-8.48829l-0.0056,0.04969l0.0001,0.00001l0.0055,-0.0497zm1.4929,1.59636l0.0379,-0.03264l0,0l-0.0379,0.03264zm4.5577,5.07663l-0.0369,0.0338l0,0l0.0369,-0.0338zm4.1986,3.4948l0,0.05l0.0496,0l0.0004,-0.0496l-0.05,-0.0004zm0.0497,-6.11814l0.05,0.00041l0,0l-0.05,-0.00041zm0.2499,-6.31773l-0.0353,-0.03545l0,0.00003l0.0353,0.03542zm0.7794,-0.31755l-0.01,-0.049l0,0l0.01,0.049zm-1.8025,-0.66964l0.001,-0.04999l0,0l-0.001,0.04999zm-1.0488,1.0683l-0.0326,0.03796l0,0.00001l0.0326,-0.03797zm0.4859,0.41627l0.05,-0.00066l-0.0003,-0.0226l-0.0171,-0.01471l-0.0326,0.03797zm0.0546,4.15715l-0.05,0.00066l0,0l0.05,-0.00066zm-1.2742,2.99222l-0.0376,0.03296l0,0l0.0376,-0.03296zm-3.5547,-3.92623l0.0369,-0.0338l0,0l-0.0369,0.0338zm-3.3825,-3.73952l0.0378,-0.03277l0,-0.00001l-0.0378,0.03278zm-0.8493,-0.97819l0.0378,-0.03278l-0.0148,-0.01704l-0.0226,-0.00018l-0.0004,0.05zm-1.7753,-0.01415l-0.0004,0.05l0,0l0.0004,-0.05zm17.7195,0.92089l0.0294,-0.04042l0,-0.00001l-0.0294,0.04043zm0.3903,5.30693l-0.05,0.00053l0,0l0.05,-0.00053zm-1.0133,6.46389l-0.0079,-0.0494l0,0l0.0079,0.0494zm3.3736,-0.1795l-0.0294,0.0404l0,0.0001l0.0294,-0.0405zm-0.3864,-5.68829l0.05,-0.00046l0,0l-0.05,0.00046zm0.3031,-5.79566l-0.0353,-0.03542l0,0l0.0353,0.03542zm14.1587,-0.69725l-0.0483,0.01267l0,0.00002l0.0483,-0.01269zm1.2346,0.74694l-0.0364,0.03429l0,0.00002l0.0364,-0.03431zm2.6833,6.42869l-0.0467,0.01786l0,0l0.0467,-0.01786zm2.3047,6.02687l-0.0467,0.0179l0.0112,0.0293l0.0312,0.0027l0.0043,-0.0499zm0.6043,0.0517l-0.0043,0.0498l0,0l0.0043,-0.0498zm0.6042,0.0516l-0.0042,0.0498l0.0376,0.0032l0.0134,-0.0354l-0.0468,-0.0176zm1.6191,-4.2799l-0.0468,-0.0177l0,0l0.0468,0.0177zm1.8268,-4.69392l-0.0447,-0.02244l0,0.00002l0.0447,0.02242zm0.76,1.03552l0.0467,-0.01779l0,-0.00001l-0.0467,0.0178zm1.7964,4.6854l0.0467,-0.0179l-0.0001,0l-0.0466,0.0179zm1.244,3.2359l-0.0466,0.018l0.0123,0.032l0.0343,0l0,-0.05zm1.1849,-0.2293l0.0466,0.018l0,0l-0.0466,-0.018zm1.7683,-4.5303l-0.0466,-0.0182l0,0l0.0466,0.0182zm2.2747,-5.82346l-0.0465,-0.01819l0,0.00001l0.0465,0.01818zm1.4876,-2.3485l-0.0164,-0.04723l0,0l0.0164,0.04723zm-5.7934,10.09326l-0.0353,-0.0354l0,0l0.0353,0.0354zm-3.2113,-8.96662l-0.0496,0.00689l0,0l0.0496,-0.00689zm-2.3145,-0.09149l-0.0472,0.01651l0,0l0.0472,-0.01651zm-1.495,5.66568l-0.0468,-0.01759l0,0l0.0468,0.01759zm-1.3228,3.52023l-0.0461,0.0195l0.0488,0.1152l0.0441,-0.1171l-0.0468,-0.0176zm-0.2849,-0.6726l0.046,-0.0195l0,0l-0.046,0.0195zm-1.8122,-4.84974l0.047,-0.01717l0,0l-0.047,0.01717zm29.9448,-4.63565l0.0457,-0.02024l0,0l-0.0457,0.02024zm-0.0288,-0.30117l0.0502,0.00005l-0.0004,-0.00395l-0.0498,0.0039zm0.2441,0.39135l0.0131,-0.04871l-0.0065,-0.00086l-0.0066,0.04957zm0.3295,0.08398l-0.0121,0.04853l0,0l0.0121,-0.04853zm1.038,0.56431l-0.046,0.01965l0,0.00001l0.046,-0.01966zm0.1067,5.36654l0.05,-0.00001l0,0l-0.05,0.00001zm-0.1217,5.42358l0.0464,0.0187l0,0l-0.0464,-0.0187zm-1.1098,0.7602l0.0134,0.0481l0.0002,0l-0.0136,-0.0481zm-0.3754,0.1559l0.034,0.0367l0,0l-0.034,-0.0367zm-0.0946,0.2379l-0.0499,-0.0046l-0.0001,0.0025l0.05,0.0021zm0.0619,0.2258l0.0366,-0.0341l0,0l-0.0366,0.0341zm0.2501,0.0383l0.0002,-0.0509l-0.0096,0.0018l0.0094,0.0491zm1.7332,0.0046l0.0005,-0.05l-0.0003,0l-0.0002,0.05zm2.8747,0.0232l0.0066,-0.0499l-0.0062,-0.0001l-0.0004,0.05zm0.2238,-0.2923l-0.0503,0l0.0005,0.005l0.0498,-0.005zm-0.0758,-0.2364l0.0348,-0.0359l0,0l-0.0348,0.0359zm-0.3694,-0.1423l-0.0119,0.0486l0.0005,0.0001l0.0114,-0.0487zm-1.1296,-0.7061l-0.0459,0.02l0,0l0.0459,-0.02zm-0.1377,-2.3424l-0.05,0l0,0.0006l0.05,-0.0006zm0,-2.07134l0.0246,-0.04355l-0.0746,-0.04207l0,0.08562l0.05,0zm0.209,0.13637l0.0286,-0.04097l0,0l-0.0286,0.04097zm2.2963,0.56706l0.0015,-0.04998l0,0l-0.0015,0.04998zm4.1189,-5.87116l0.0479,-0.01452l0,0l-0.0479,0.01452zm-3.9725,-2.70877l-0.0025,0.04994l0.0025,-0.04994zm-3.4637,0.03844l0.0023,0.04995l0,0l-0.0023,-0.04995zm-0.2414,0.01083l0.0021,0.04995l0.0001,0l-0.0022,-0.04995zm-2.1888,0.15349l0.0047,0.04978l0,0l-0.0047,-0.04978zm-0.0014,0.00013l-0.0047,-0.04978l0,0l0.0047,0.04978zm-0.1754,0.05848l0.0393,0.03092l0,0l-0.0393,-0.03092zm8.3701,3.96236l0.0501,0l-0.0002,-0.00333l-0.0499,0.00333zm-3.0621,-3.2525l-0.0025,0.05l0.0025,0l0,-0.05zm-1.8422,0.89562l0.0496,0.01255l0.0004,-0.01051l-0.05,-0.00204zm-0.0438,2.72524l0.05,-0.0003l0,-0.00001l-0.05,0.00031zm0.015,2.49299l-0.05,0.00031l0.0002,0.02997l0.0265,0.01396l0.0233,-0.04424zm0.2585,0.13615l0.0233,-0.04421l0,-0.00002l-0.0233,0.04423zm0.0139,0.00737l0.0234,-0.04422l0,0l-0.0234,0.04422zm0.6405,0.23247l-0.0096,0.04907l0,0l0.0096,-0.04907zm-12.3255,-7.43488l0.0179,0.04669l0.0011,-0.00045l-0.019,-0.04624zm-0.3121,0.11888l-0.0178,-0.04706l-0.0051,0.00264l0.0229,0.04442zm0.684,-0.11888l-0.0393,0.03088l0,0.00001l0.0393,-0.03089zm0.3826,0.95074l-0.0467,0.01806l0,0l0.0467,-0.01806zm0.1667,0.42989l0.0466,-0.01809l0,-0.00001l-0.0466,0.0181zm1.2021,3.09405l0.0465,-0.01813l0,0l-0.0465,0.01813zm1.251,3.21781l0.0466,-0.01811l0,0l-0.0466,0.01811zm1.1507,2.95926l-0.0466,0.0182l0.0001,0l0.0465,-0.0182zm0.6048,1.3144l0.0404,-0.0295l-0.0001,0l-0.0403,0.0295zm0.1266,0.198l-0.0428,0.0258l0,0l0.0428,-0.0258zm0.8924,0.7647l0.0081,-0.0494l-0.0002,0l-0.0079,0.0494zm0.4292,0.1204l0.0363,-0.0343l0,0l-0.0363,0.0343zm0.0679,0.1651l0.0504,0l-0.0007,-0.0059l-0.0497,0.0059zm0,0.2l0.05,0.0062l0,-0.0062l-0.05,0zm-0.0371,0.0946l-0.0408,-0.0289l0,0l0.0408,0.0289zm-0.1438,0.0313l0.0053,-0.05l-0.0053,0l0,0.05zm-2.8823,0.0002l0,-0.05l-0.0003,0l0.0003,0.05zm-2.0505,0.0148l-0.0003,-0.0504l-0.0057,0.0007l0.006,0.0497zm-0.1138,-0.0262l-0.0319,0.0385l0,0l0.0319,-0.0385zm-0.0642,-0.1232l-0.0516,0l0.003,0.0121l0.0486,-0.0121zm0,-0.1507l0.0506,0l-0.0012,-0.0077l-0.0494,0.0077zm0.0642,-0.2118l-0.0385,-0.0319l0,0l0.0385,0.0319zm0.4112,-0.1099l0.0018,0.05l0.0026,-0.0002l-0.0044,-0.0498zm0.9939,-0.8549l-0.0453,-0.0212l0,0.0001l0.0453,0.0211zm0.0265,-0.0564l0.0451,0.0217l0,0l-0.0451,-0.0217zm-0.5243,-1.969l-0.0463,0.0188l0,0l0.0463,-0.0188zm-0.6383,-1.2964l-0.0123,0.0485l0,0l0.0123,-0.0485zm-2.3839,-0.0143l0.0004,0.05l0,0l-0.0004,-0.05zm-2.2588,0.0172l-0.0004,-0.05l-0.0347,0.0003l-0.0119,0.0326l0.047,0.0171zm-0.1351,0.3713l-0.047,-0.0171l0,0l0.047,0.0171zm-0.7898,2.4293l0.0492,0.0089l0,0l-0.0492,-0.0089zm0.9051,1.3531l0.0068,-0.0495l-0.0003,-0.0001l-0.0065,0.0496zm0.4054,0.1085l0.0301,-0.04l0,0l-0.0301,0.04zm0.1153,0.2294l0.0508,0l-0.0016,-0.0089l-0.0492,0.0089zm0,0.1521l0.05,0.0112l0,-0.0112l-0.05,0zm-0.0751,0.1211l-0.0319,-0.0385l0,0l0.0319,0.0385zm-0.2112,0.031l0.0059,-0.05l-0.0059,0l0,0.05zm-2.1559,0l0,-0.05l-0.0006,0l0.0006,0.05zm-2.0858,0.0237l-0.0012,0.0501l0.0017,-0.0001l-0.0005,-0.05zm-0.2312,-0.1419l-0.0506,0l0.0011,0.0075l0.0495,-0.0075zm0,-0.1445l0.0503,0l-0.0007,-0.006l-0.0496,0.006zm0.1048,-0.2085l0.0352,0.0355l0,0l-0.0352,-0.0355zm0.4297,-0.1455l0.0049,0.0498l0.0031,-0.0004l-0.008,-0.0494zm1.079,-1.0479l-0.0442,-0.0235l0,0l0.0442,0.0235zm0.0389,-0.0728l-0.0439,-0.0238l0,0l0.0439,0.0238zm1.5673,-3.83648l-0.0463,-0.01871l0,0l0.0463,0.01871zm1.4238,-3.55817l-0.0465,-0.01849l0,0l0.0465,0.01849zm1.0916,-2.73515l0.0464,0.01859l0,0l-0.0464,-0.01859zm0.4883,-1.2191l-0.023,-0.04443l-0.0165,0.00855l-0.0069,0.01729l0.0464,0.01859zm0.856,3.49473l-0.0462,0.01903l0,0.00001l0.0462,-0.01904zm-0.3558,-0.88169l-0.0464,0.01843l0,0.00001l0.0464,-0.01844zm0.9222,2.27401l-0.0464,0.01876l0,0l0.0464,-0.01876zm0.6018,1.47265l0.0462,-0.01924l0,0l-0.0462,0.01924zm-3.4017,0.18392l-0.0469,-0.01743l0,0.00002l0.0469,0.01741zm1.2904,-3.69332l0.0472,0.01641l0,0l-0.0472,-0.01641zm0.266,-0.7281l-0.043,-0.02554l0,0.00001l0.043,0.02553zm-35.7166,1.63449c-0.3199,-1.06393 -0.215,-2.03253 0.2467,-2.80498c0.462,-0.77275 1.2848,-1.35526 2.412,-1.63929l-0.0244,-0.09697c-1.1475,0.28912 -1.9952,0.885 -2.4734,1.68495c-0.4784,0.80025 -0.5833,1.79864 -0.2567,2.88509l0.0958,-0.0288zm2.3111,2.51723c-1.1988,-0.69162 -2.0392,-1.61251 -2.3111,-2.51722l-0.0958,0.02878c0.282,0.93813 1.1458,1.87635 2.3569,2.57505l0.05,-0.08661zm3.2022,2.54598c-0.3791,-0.78047 -1.0333,-1.29471 -3.2022,-2.54598l-0.05,0.08661c2.1741,1.25428 2.7988,1.75475 3.1623,2.50307l0.0899,-0.0437zm0.1838,1.4637c0.0786,-0.2906 0.1131,-0.4961 0.0859,-0.7113c-0.027,-0.2141 -0.1146,-0.4333 -0.2697,-0.7524l-0.0899,0.0437c0.1548,0.3185 0.2356,0.5248 0.2604,0.7212c0.0246,0.1953 -0.0056,0.3854 -0.0832,0.6727l0.0965,0.0261zm-2.742,2.1421c0.6942,0 1.2873,-0.1898 1.7538,-0.5544c0.4664,-0.3645 0.8026,-0.9008 0.9882,-1.5877l-0.0965,-0.0261c-0.1811,0.67 -0.5069,1.1862 -0.9533,1.5351c-0.4463,0.3487 -1.0167,0.5331 -1.6922,0.5331l0,0.1zm-2.648,-2.1176c0.1113,0.6568 0.4173,1.1872 0.8753,1.5531c0.4579,0.3657 1.0643,0.5645 1.7727,0.5645l0,-0.1c-0.6896,0 -1.273,-0.1933 -1.7103,-0.5426c-0.437,-0.3492 -0.7315,-0.8567 -0.8392,-1.4917l-0.0985,0.0167zm-0.3981,-0.6437c0.0573,0 0.1028,0.0094 0.1408,0.0286c0.0377,0.0191 0.0713,0.0494 0.1021,0.0966c0.0633,0.0969 0.1112,0.2589 0.1551,0.5185l0.0986,-0.0167c-0.044,-0.2598 -0.0943,-0.4405 -0.17,-0.5565c-0.0386,-0.0592 -0.0847,-0.1028 -0.1407,-0.1311c-0.0556,-0.0281 -0.1177,-0.0394 -0.1859,-0.0394l0,0.1zm-0.2812,1.4032c0,-0.6607 0.0082,-1.017 0.0519,-1.2089c0.0217,-0.095 0.0499,-0.1392 0.0808,-0.1621c0.0314,-0.0233 0.0754,-0.0322 0.1485,-0.0322l0,-0.1c-0.0769,0 -0.1492,0.0083 -0.208,0.0519c-0.0593,0.0439 -0.0951,0.1163 -0.1188,0.2202c-0.0468,0.2057 -0.0544,0.576 -0.0544,1.2311l0.1,0zm0,1.4529l0,-1.4529l-0.1,0l0,1.4529l0.1,0zm0.8754,0.2616l-0.9093,-0.3089l-0.0321,0.0946l0.9092,0.3089l0.0322,-0.0946zm4.6075,-0.1306c-0.5945,0.2748 -1.3935,0.4277 -2.2222,0.4514c-0.8284,0.0236 -1.6821,-0.082 -2.3853,-0.3208l-0.0322,0.0946c0.7167,0.2434 1.5827,0.3501 2.4204,0.3261c0.8373,-0.0238 1.6507,-0.1783 2.2613,-0.4605l-0.042,-0.0908zm2.1704,-5.18417c0.5203,0.99407 0.5575,2.02037 0.1768,2.93177c-0.381,0.9122 -1.1824,1.7139 -2.3472,2.2524l0.042,0.0908c1.1828,-0.5469 2.0051,-1.3651 2.3975,-2.3047c0.3927,-0.9403 0.3529,-1.9977 -0.1805,-3.01664l-0.0886,0.04637zm-3.0589,-2.59582c1.6944,1.02206 2.672,1.85641 3.0589,2.59582l0.0886,-0.04637c-0.4011,-0.76654 -1.4015,-1.61308 -3.0958,-2.63508l-0.0517,0.08563zm-2.7144,-2.68556c0.0604,0.4118 0.2957,0.81511 0.7356,1.24833c0.4397,0.43302 1.0872,0.89935 1.9788,1.43723l0.0517,-0.08563c-0.8892,-0.53645 -1.5289,-0.99801 -1.9603,-1.42285c-0.4312,-0.42464 -0.6508,-0.80917 -0.7069,-1.19158l-0.0989,0.0145zm2.469,-2.28357c-1.5189,-0.00437 -2.6537,1.022 -2.469,2.28356l0.099,-0.01449c-0.1728,-1.17945 0.8878,-2.17333 2.3697,-2.16907l0.0003,-0.1zm2.141,1.18463c-0.2108,-0.44253 -0.4469,-0.7409 -0.7845,-0.92711c-0.3361,-0.1854 -0.7662,-0.25588 -1.3565,-0.25752l-0.0003,0.1c0.5848,0.00163 0.9945,0.0719 1.3085,0.24508c0.3125,0.17238 0.5367,0.45044 0.7425,0.88255l0.0903,-0.043zm0.712,0.70496c-0.1424,-0.00223 -0.2539,-0.04411 -0.3622,-0.14909c-0.1111,-0.10773 -0.2198,-0.28297 -0.3498,-0.55587l-0.0903,0.043c0.1309,0.27471 0.2459,0.46378 0.3705,0.58466c0.1275,0.12364 0.2638,0.17468 0.4302,0.17728l0.0016,-0.09998zm0.2563,-0.3191c0.0215,0.08016 0.0335,0.14041 0.0354,0.18603c0.0018,0.04542 -0.0065,0.06951 -0.0181,0.08409c-0.0118,0.01477 -0.0342,0.02873 -0.0802,0.03793c-0.046,0.00921 -0.1088,0.01233 -0.1934,0.01105l-0.0016,0.09998c0.0862,0.00131 0.1578,-0.00159 0.2147,-0.01297c0.0569,-0.01139 0.1058,-0.03261 0.1386,-0.07356c0.0329,-0.04114 0.0423,-0.09331 0.0399,-0.15068c-0.0024,-0.05717 -0.0168,-0.12623 -0.0388,-0.20787l-0.0965,0.026zm-0.1084,-1.20246c0.0012,0.44174 0.0493,0.98243 0.1084,1.20243l0.0965,-0.02593c-0.0555,-0.20697 -0.1037,-0.73696 -0.1049,-1.17677l-0.1,0.00027zm-0.2363,-0.85639c0.0723,0.02763 0.1317,0.09624 0.1731,0.23574c0.0416,0.13991 0.0623,0.34214 0.0632,0.62067l0.1,-0.00031c-0.0009,-0.28116 -0.0216,-0.49494 -0.0673,-0.64886c-0.0459,-0.15432 -0.1199,-0.25735 -0.2334,-0.30066l-0.0356,0.09342zm-4.0827,-0.1016c0.1573,-0.03964 0.4591,-0.06582 0.8362,-0.07898c0.3754,-0.0131 0.8206,-0.0132 1.2616,-0.00212c0.4409,0.01108 0.8769,0.03332 1.2339,0.06483c0.1786,0.01575 0.3368,0.03378 0.4659,0.05379c0.13,0.02017 0.227,0.04188 0.285,0.06407l0.0358,-0.0934c-0.0686,-0.02622 -0.1746,-0.04918 -0.3055,-0.06949c-0.132,-0.02047 -0.2926,-0.03872 -0.4724,-0.05459c-0.3596,-0.03173 -0.7978,-0.05406 -1.2402,-0.06518c-0.4424,-0.01112 -0.8897,-0.01104 -1.2676,0.00215c-0.3761,0.01313 -0.6881,0.03935 -0.8571,0.08195l0.0244,0.09697zm-45.27498,0.75994c-0.1451,0 -0.23296,-0.02421 -0.28494,-0.06777c-0.04962,-0.04158 -0.07692,-0.10999 -0.07692,-0.22739l-0.1,0c0,0.13094 0.03046,0.23512 0.11269,0.30403c0.07986,0.06694 0.19793,0.09113 0.34917,0.09113l0,-0.1zm1.02369,5.29559c-0.04628,-2.49997 -0.08057,-3.81723 -0.20886,-4.50842c-0.06403,-0.34501 -0.15347,-0.5472 -0.2913,-0.65996c-0.13846,-0.11328 -0.3152,-0.12721 -0.52353,-0.12721l0,0.1c0.20975,0 0.35219,0.01624 0.46021,0.10461c0.10866,0.08889 0.19302,0.25985 0.2563,0.60081c0.12635,0.68077 0.16082,1.98677 0.2072,4.49203l0.09998,-0.00186zm0.45433,5.34445c-0.08642,-0.1596 -0.15196,-0.2988 -0.20379,-0.4856c-0.05205,-0.1876 -0.09075,-0.4249 -0.12127,-0.7808c-0.06111,-0.7125 -0.08881,-1.89084 -0.12927,-4.07804l-0.09998,0.00184c0.04042,2.18552 0.06814,3.3681 0.12961,4.0847c0.03077,0.3587 0.07015,0.603 0.12455,0.799c0.0546,0.1969 0.12387,0.3434 0.21221,0.5065l0.08794,-0.0476zm2.20092,1.9935c-1.03542,-0.4714 -1.70588,-1.0794 -2.20092,-1.9935l-0.08793,0.0476c0.50637,0.935 1.19411,1.5574 2.24741,2.0369l0.04144,-0.091zm2.57731,0.3932c-0.71529,-0.0015 -1.18259,-0.0196 -1.55974,-0.0773c-0.3756,-0.0575 -0.66292,-0.1545 -1.01757,-0.3159l-0.04143,0.091c0.36081,0.1642 0.65707,0.2646 1.04387,0.3238c0.38526,0.0589 0.85919,0.0769 1.57466,0.0784l0.00021,-0.1zm2.70228,-0.4773c-0.44349,0.217 -0.73149,0.3358 -1.10036,0.4012c-0.37082,0.0656 -0.82514,0.0775 -1.60193,0.0761l-0.00019,0.1c0.77538,0.0014 1.23857,-0.0102 1.61955,-0.0777c0.38292,-0.0678 0.68102,-0.1916 1.12689,-0.4098l-0.04396,-0.0898zm1.49405,-1.0991c-0.2792,0.3376 -0.9525,0.8341 -1.49405,1.0991l0.04395,0.0898c0.55,-0.2691 1.2362,-0.7735 1.5272,-1.1252l-0.0771,-0.0637zm1.1936,-6.61886c-0.056,2.44017 -0.1102,3.79936 -0.2731,4.69796c-0.0812,0.4481 -0.1892,0.7799 -0.3371,1.0731c-0.148,0.2934 -0.3372,0.5501 -0.5834,0.8478l0.0771,0.0637c0.2479,-0.2997 0.4426,-0.5632 0.5956,-0.8665c0.1532,-0.3036 0.2637,-0.645 0.3462,-1.1003c0.1646,-0.9081 0.2187,-2.27628 0.2747,-4.71346l-0.1,-0.0023zm0.9744,-4.82889c-0.1969,0.00173 -0.3652,0.00641 -0.4961,0.0985c-0.1327,0.09339 -0.2161,0.26755 -0.2753,0.57343c-0.1185,0.61239 -0.1491,1.81168 -0.203,4.15696l0.1,0.0023c0.054,-2.35137 0.0848,-3.53857 0.2012,-4.14027c0.0582,-0.30117 0.1356,-0.44095 0.2347,-0.51063c0.1009,-0.07098 0.2352,-0.0785 0.4394,-0.0803l-0.0009,-0.09999zm0.2536,-0.29775c0,0.09751 -0.0267,0.17131 -0.0693,0.22017c-0.0419,0.04813 -0.1034,0.0769 -0.1842,0.07758l0.0008,0.09999c0.1059,-0.00088 0.1959,-0.03967 0.2588,-0.11187c0.0623,-0.07146 0.0939,-0.17076 0.0939,-0.28587l-0.1,0zm-2.0284,-0.29516c0.984,0 1.498,0.00497 1.7671,0.04965c0.1352,0.02246 0.1956,0.05324 0.2249,0.08688c0.0282,0.03241 0.0364,0.07728 0.0364,0.15863l0.1,0c0,-0.08165 -0.0063,-0.16143 -0.061,-0.22431c-0.0537,-0.06164 -0.1449,-0.09677 -0.2839,-0.11985c-0.2795,-0.0464 -0.8046,-0.051 -1.7835,-0.051l0,0.1zm-2.0283,0.28428c0,-0.07649 0.00923,-0.11871 0.03831,-0.1496c0.03114,-0.03307 0.09437,-0.06317 0.23129,-0.08519c0.272,-0.04376 0.7863,-0.04949 1.7587,-0.04949l0,-0.1c-0.9677,0 -1.4925,0.00539 -1.77462,0.05076c-0.1402,0.02255 -0.23277,0.05652 -0.28818,0.11538c-0.05747,0.06104 -0.0655,0.13861 -0.0655,0.21814l0.1,0zm0.5137,0.33855c-0.2087,-0.02022 -0.3368,-0.05408 -0.4127,-0.10682c-0.06997,-0.04862 -0.101,-0.11746 -0.101,-0.23173l-0.1,0c0,0.13597 0.03911,0.24101 0.14394,0.31385c0.09889,0.06871 0.25016,0.10389 0.46016,0.12423l0.0096,-0.09953zm1.0425,4.77524c-0.0014,-2.13875 -0.0205,-3.30459 -0.1559,-3.9459c-0.0679,-0.32172 -0.1668,-0.5214 -0.3161,-0.6446c-0.1488,-0.12281 -0.3393,-0.16241 -0.5705,-0.18475l-0.0096,0.09954c0.2287,0.0221 0.3925,0.06002 0.5165,0.16234c0.1235,0.10192 0.2158,0.27497 0.2819,0.58812c0.1326,0.62845 0.1523,1.78092 0.1537,3.92532l0.1,-0.00007zm-1.0909,6.09349c0.235,-0.2223 0.4225,-0.4435 0.5704,-0.7195c0.1478,-0.2757 0.2548,-0.6037 0.3319,-1.038c0.1538,-0.8668 0.19,-2.16592 0.1886,-4.33599l-0.1,0.00007c0.0014,2.17228 -0.0351,3.46202 -0.1871,4.31842c-0.0758,0.4272 -0.1801,0.7444 -0.3215,1.0083c-0.1413,0.2637 -0.3211,0.4766 -0.551,0.694l0.0687,0.0727zm-2.76511,1.107c0.59295,0 1.06634,-0.0693 1.50153,-0.2436c0.43515,-0.1742 0.82855,-0.4519 1.26358,-0.8634l-0.0687,-0.0727c-0.42954,0.4063 -0.81248,0.6753 -1.23205,0.8433c-0.41953,0.168 -0.87923,0.2364 -1.46436,0.2364l0,0.1zm-3.33253,-2.1935c0.40073,1.396 1.62372,2.1935 3.33253,2.1935l0,-0.1c-1.67542,0 -2.85083,-0.7779 -3.23641,-2.1211l-0.09612,0.0276zm-0.14828,-5.1056c-0.01733,1.46859 -0.01383,2.62701 0.01058,3.4761c0.0122,0.4246 0.02964,0.7723 0.05238,1.043c0.02265,0.2697 0.05078,0.4662 0.08533,0.5865l0.09611,-0.0276c-0.03161,-0.1101 -0.05919,-0.298 -0.08179,-0.5673c-0.02253,-0.2681 -0.0399,-0.6138 -0.05207,-1.0374c-0.02435,-0.84719 -0.02787,-2.00406 -0.01055,-3.47213l-0.09999,-0.00117zm0.05178,-4.40086l-0.05178,4.40086l0.09999,0.00117l0.05178,-4.40085l-0.09999,-0.00118zm0.64088,-0.24184l-0.60618,0.19483l0.0306,0.0952l0.60618,-0.19483l-0.0306,-0.0952zm0.6284,-0.43683c-0.0053,0.02646 -0.02358,0.0609 -0.05838,0.10114c-0.03421,0.03958 -0.08155,0.08147 -0.13932,0.12288c-0.11554,0.08282 -0.26865,0.16071 -0.4307,0.21281l0.0306,0.0952c0.17135,-0.05508 0.33389,-0.13752 0.45836,-0.22673c0.06222,-0.0446 0.11598,-0.09165 0.15671,-0.13875c0.04015,-0.04644 0.07067,-0.09641 0.08078,-0.14692l-0.09805,-0.01963zm-2.33241,-0.21993c1.07888,0 1.68307,0.00819 2.01161,0.04679c0.16636,0.01954 0.2515,0.04602 0.29248,0.0755c0.01837,0.01321 0.02602,0.02578 0.02955,0.03816c0.00394,0.01379 0.00418,0.03243 -0.00123,0.05947l0.09805,0.01964c0.00697,-0.03478 0.00943,-0.07125 -0.00066,-0.10657c-0.01049,-0.03674 -0.03311,-0.06727 -0.06731,-0.09188c-0.06417,-0.04616 -0.17341,-0.07416 -0.33921,-0.09364c-0.33579,-0.03945 -0.94709,-0.04747 -2.02328,-0.04747l0,0.1zm-2.38737,0.29516c0,-0.08205 0.00831,-0.12546 0.03993,-0.15752c0.03445,-0.03494 0.10625,-0.06635 0.26507,-0.08884c0.31465,-0.04457 0.9192,-0.0488 2.08237,-0.0488l0,-0.1c-1.15868,0 -1.77281,0.00396 -2.09639,0.04978c-0.16029,0.0227 -0.26249,0.05704 -0.32225,0.11764c-0.0626,0.06347 -0.06873,0.14541 -0.06873,0.22774l0.1,0zm16.56854,0.29516c-0.1985,0 -0.3118,-0.0204 -0.3762,-0.06384c-0.0576,-0.03892 -0.0852,-0.10373 -0.0852,-0.23132l-0.1,0c0,0.13957 0.0302,0.24733 0.1293,0.31421c0.0924,0.06236 0.2348,0.08095 0.4321,0.08095l0,-0.1zm1.6263,1.11372c-0.102,-0.37751 -0.2817,-0.6581 -0.5531,-0.84331c-0.2706,-0.1846 -0.6263,-0.27041 -1.0732,-0.27041l0,0.1c0.4351,0 0.7687,0.08369 1.0168,0.25301c0.2473,0.16873 0.4156,0.42651 0.513,0.78679l0.0965,-0.02608zm0.1307,5.30049c0.0167,-1.43217 0.0128,-2.64965 -0.0095,-3.56178c-0.0111,-0.45602 -0.0268,-0.83611 -0.0469,-1.12873c-0.02,-0.29102 -0.0445,-0.49967 -0.0743,-0.60999l-0.0965,0.0261c0.0268,0.09945 0.051,0.29859 0.071,0.59074c0.02,0.29056 0.0357,0.66903 0.0468,1.12432c0.0222,0.9105 0.0261,2.12668 0.0095,3.55818l0.0999,0.00116zm-1.2273,5.70673c0.2651,-0.0528 0.4799,-0.1151 0.647,-0.2659c0.1677,-0.1512 0.2806,-0.3848 0.36,-0.7636c0.1585,-0.7552 0.1907,-2.1235 0.2203,-4.67723l-0.0999,-0.00116c-0.0298,2.55939 -0.0623,3.91479 -0.2182,4.65789c-0.0777,0.3702 -0.1844,0.5794 -0.3291,0.7099c-0.1453,0.131 -0.3359,0.1895 -0.5996,0.2421l0.0195,0.098zm-0.4715,0.3766c0,-0.0957 0.0344,-0.1705 0.1071,-0.2309c0.0751,-0.0625 0.1936,-0.1116 0.3645,-0.1457l-0.0196,-0.098c-0.1778,0.0354 -0.3152,0.0889 -0.4088,0.1668c-0.0961,0.0799 -0.1432,0.1831 -0.1432,0.3078l0.1,0zm2.3747,0.2735c-1.1296,0 -1.7314,-0.0057 -2.0515,-0.0484c-0.1615,-0.0216 -0.2397,-0.0514 -0.2787,-0.0853c-0.0341,-0.0296 -0.0445,-0.0682 -0.0445,-0.1398l-0.1,0c0,0.0789 0.0107,0.156 0.0789,0.2152c0.0632,0.055 0.1684,0.0873 0.3311,0.109c0.3284,0.0438 0.9389,0.0493 2.0647,0.0493l0,-0.1zm2.3747,-0.2594c0,0.0642 -0.0115,0.0998 -0.048,0.1283c-0.0426,0.0332 -0.1257,0.062 -0.2898,0.0829c-0.3252,0.0415 -0.9274,0.0482 -2.0369,0.0482l0,0.1c1.1062,0 1.7164,-0.0065 2.0496,-0.049c0.1651,-0.0211 0.2728,-0.0519 0.3386,-0.1033c0.072,-0.0561 0.0865,-0.1298 0.0865,-0.2071l-0.1,0zm-0.7332,-0.4663c0.2732,0.0728 0.4591,0.1447 0.576,0.2228c0.1145,0.0765 0.1572,0.1548 0.1572,0.2435l0.1,0c0,-0.1315 -0.0682,-0.2374 -0.2017,-0.3266c-0.1312,-0.0877 -0.3304,-0.163 -0.6058,-0.2363l-0.0257,0.0966zm-0.987,-0.8904c0.0801,0.2872 0.1507,0.469 0.2953,0.599c0.143,0.1286 0.3527,0.201 0.6917,0.2914l0.0257,-0.0966c-0.3421,-0.0912 -0.5281,-0.1591 -0.6506,-0.2692c-0.1208,-0.1086 -0.1855,-0.2638 -0.2658,-0.5515l-0.0963,0.0269zm0.0005,-8.55138c-0.0258,-0.00288 -0.0436,0.01146 -0.0521,0.02108c-0.0085,0.00952 -0.014,0.02072 -0.0178,0.02984c-0.0077,0.01888 -0.014,0.04413 -0.0195,0.07294c-0.0112,0.05857 -0.021,0.14341 -0.0298,0.24974c-0.0176,0.21323 -0.0315,0.51899 -0.0417,0.88778c-0.0205,0.73786 -0.0269,1.73105 -0.0205,2.74767c0.0063,1.01666 0.0254,2.05723 0.0558,2.89003c0.0152,0.4163 0.0332,0.7811 0.0538,1.065c0.0206,0.2819 0.044,0.4893 0.0713,0.5873l0.0963,-0.0268c-0.0241,-0.0865 -0.0471,-0.2834 -0.0678,-0.5677c-0.0206,-0.2823 -0.0385,-0.6457 -0.0537,-1.0614c-0.0303,-0.8315 -0.0494,-1.87107 -0.0557,-2.88705c-0.0064,-1.01602 0,-2.00797 0.0204,-2.74427c0.0103,-0.3683 0.024,-0.67188 0.0414,-0.88232c0.0088,-0.10551 0.0183,-0.18608 0.0284,-0.23927c0.0052,-0.02707 0.01,-0.04428 0.0138,-0.05355c0.002,-0.00494 0.0024,-0.00423 0,-0.00152c-0.0025,0.00283 -0.0141,0.01406 -0.0337,0.01188l0.0111,-0.09938zm1.5253,1.61341c-0.3752,-0.43537 -0.7311,-0.833 -1.0022,-1.12296c-0.1355,-0.14491 -0.2503,-0.26333 -0.3359,-0.34624c-0.0427,-0.04136 -0.0788,-0.0745 -0.1069,-0.09782c-0.014,-0.0116 -0.0269,-0.02147 -0.0381,-0.02885c-0.0056,-0.00368 -0.0116,-0.00724 -0.0177,-0.01015c-0.0055,-0.0026 -0.0141,-0.00624 -0.0245,-0.00739l-0.011,0.09939c-0.0059,-0.00066 -0.009,-0.00241 -0.0076,-0.00178c0.0007,0.00033 0.0026,0.00136 0.006,0.00359c0.0068,0.00444 0.0164,0.01167 0.0291,0.02218c0.0252,0.02089 0.0591,0.05197 0.1011,0.09267c0.0839,0.08122 0.1974,0.19827 0.3324,0.3427c0.2701,0.28874 0.625,0.68532 0.9996,1.11994l0.0757,-0.06528zm4.5567,5.07557c-1.7571,-1.92219 -3.8076,-4.20618 -4.5567,-5.07557l-0.0757,0.06528c0.7501,0.87059 2.8015,3.15552 4.5586,5.07779l0.0738,-0.0675zm3.6597,3.4785c-0.1938,0 -0.417,-0.1066 -0.9447,-0.6055c-0.5248,-0.4961 -1.3395,-1.3683 -2.715,-2.873l-0.0738,0.0675c1.3746,1.5038 2.1921,2.379 2.7201,2.8781c0.5251,0.4964 0.7751,0.6329 1.0134,0.6329l0,-0.1zm0.502,0l-0.502,0l0,0.1l0.502,0l0,-0.1zm-0.0003,-6.06854l-0.0497,6.11814l0.1,0.0008l0.0497,-6.11813l-0.1,-0.00081zm0.2646,-6.35275c-0.0167,0.0166 -0.0283,0.0403 -0.0374,0.06443c-0.0095,0.02539 -0.0182,0.05703 -0.0263,0.09435c-0.0162,0.07474 -0.0311,0.17696 -0.0448,0.30744c-0.0276,0.26121 -0.0511,0.64055 -0.0713,1.1502c-0.0403,1.01956 -0.0673,2.56425 -0.0848,4.73633l0.1,0.00081c0.0175,-2.17199 0.0445,-3.71532 0.0847,-4.73319c0.0202,-0.50907 0.0436,-0.88579 0.0708,-1.14368c0.0136,-0.12907 0.028,-0.22716 0.0431,-0.29669c0.0076,-0.03482 0.0151,-0.06131 0.0222,-0.08045c0.0036,-0.00952 0.0069,-0.01657 0.0097,-0.02159c0.0013,-0.00247 0.0025,-0.00425 0.0034,-0.00547c0.0008,-0.00123 0.0013,-0.00169 0.0013,-0.00165l-0.0706,-0.07084zm0.8047,-0.33113c-0.1624,0.0331 -0.3326,0.08598 -0.4766,0.14464c-0.1418,0.05778 -0.2653,0.12399 -0.3281,0.18646l0.0705,0.07089c0.0476,-0.04729 0.1546,-0.1074 0.2953,-0.16474c0.1386,-0.05645 0.3029,-0.10747 0.4588,-0.13926l-0.0199,-0.09799zm0.539,-0.32086c0,0.04628 -0.0403,0.1085 -0.1398,0.17205c-0.096,0.06136 -0.2346,0.11526 -0.3992,0.14881l0.0199,0.09799c0.1733,-0.03531 0.3242,-0.0929 0.4332,-0.16253c0.1055,-0.06745 0.1859,-0.15572 0.1859,-0.25632l-0.1,0zm-2.3325,-0.24979c0.9755,0.01969 1.5681,0.04312 1.9166,0.08699c0.1751,0.02205 0.283,0.04867 0.346,0.07948c0.0309,0.01511 0.0479,0.02976 0.0572,0.04247c0.0087,0.01184 0.0127,0.02461 0.0127,0.04085l0.1,0c0,-0.03527 -0.0096,-0.06928 -0.0321,-0.1c-0.0219,-0.02986 -0.0539,-0.05358 -0.0939,-0.07315c-0.0789,-0.03857 -0.2009,-0.06664 -0.3774,-0.08886c-0.3548,-0.04467 -0.9529,-0.0681 -1.9271,-0.08776l-0.002,0.09998zm-2.3304,0.25203c0,-0.0858 0.007,-0.13024 0.0364,-0.16195c0.0309,-0.0335 0.0972,-0.06372 0.2507,-0.0832c0.3041,-0.03856 0.8944,-0.03005 2.0433,-0.00688l0.002,-0.09998c-1.144,-0.02307 -1.7444,-0.03209 -2.0578,0.00766c-0.1552,0.01967 -0.2544,0.05256 -0.3117,0.11452c-0.0589,0.06374 -0.0629,0.1471 -0.0629,0.22983l0.1,0zm0.3733,0.3c-0.1526,0 -0.2431,-0.02372 -0.296,-0.06749c-0.0502,-0.04153 -0.0773,-0.11056 -0.0773,-0.23251l-0.1,0c0,0.13416 0.0296,0.24013 0.1136,0.30957c0.0812,0.06721 0.2024,0.09043 0.3597,0.09043l0,-0.1zm0.9418,0.42831c-0.1377,-0.11797 -0.3108,-0.22442 -0.4792,-0.30151c-0.1672,-0.07653 -0.3355,-0.1268 -0.4626,-0.1268l0,0.1c0.1058,0 0.2585,0.04337 0.4209,0.11772c0.1612,0.0738 0.3262,0.17547 0.4558,0.28652l0.0651,-0.07593zm0.486,0.41627l-0.486,-0.41628l-0.0651,0.07595l0.486,0.41627l0.0651,-0.07594zm0.072,4.19446l-0.0546,-4.15715l-0.1,0.00132l0.0546,4.15715l0.1,-0.00132zm-0.1491,4.2079c0.0263,0 0.0419,-0.0171 0.048,-0.0253c0.0069,-0.0092 0.0115,-0.0197 0.0147,-0.0284c0.0067,-0.0181 0.0122,-0.0423 0.017,-0.0701c0.0099,-0.0565 0.0187,-0.1383 0.0266,-0.2419c0.0159,-0.2077 0.0285,-0.5084 0.0374,-0.88158c0.0178,-0.74672 0.0209,-1.78668 0.0054,-2.96062l-0.1,0.00132c0.0155,1.17317 0.0124,2.21182 -0.0054,2.95691c-0.0089,0.37267 -0.0214,0.67127 -0.0371,0.87627c-0.0078,0.1028 -0.0164,0.1808 -0.0254,0.2324c-0.0046,0.0262 -0.0089,0.0433 -0.0124,0.0528c-0.0018,0.0051 -0.0024,0.0051 -0.0008,0.0029c0.0009,-0.0012 0.0112,-0.0147 0.032,-0.0147l0,0.1zm-1.2127,-1.18206c0.2815,0.32106 0.555,0.61316 0.769,0.82536c0.1069,0.106 0.1995,0.1926 0.2713,0.253c0.0357,0.0301 0.0672,0.0545 0.0932,0.0716c0.013,0.0086 0.0255,0.016 0.0373,0.0214c0.0106,0.0049 0.0256,0.0107 0.0419,0.0107l0,-0.1c0.0058,0 0.0068,0.0016 0,-0.0015c-0.0055,-0.0025 -0.0135,-0.007 -0.0242,-0.0141c-0.0213,-0.014 -0.0494,-0.0356 -0.0838,-0.0646c-0.0688,-0.0579 -0.1593,-0.1424 -0.2653,-0.2475c-0.212,-0.2102 -0.4839,-0.5005 -0.7642,-0.82028l-0.0752,0.06592zm-3.5539,-3.92538c1.3934,1.51873 2.9926,3.28505 3.5539,3.92538l0.0752,-0.06592c-0.5621,-0.64127 -2.1621,-2.40835 -3.5554,-3.92707l-0.0737,0.06761zm-3.3834,-3.74055c0.4674,0.53854 1.9901,2.22189 3.3834,3.74055l0.0737,-0.06761c-1.3934,-1.51879 -2.9152,-3.20116 -3.3816,-3.73849l-0.0755,0.06555zm-0.8494,-0.97819l0.8494,0.97819l0.0755,-0.06556l-0.8493,-0.97819l-0.0756,0.06556zm-1.7379,0.00307l1.7753,0.01415l0.0008,-0.1l-1.7753,-0.01415l-0.0008,0.1zm-1.7248,0.28101c0,-0.08088 0.0078,-0.127 0.0329,-0.15959c0.0248,-0.03216 0.075,-0.06172 0.1897,-0.08309c0.2297,-0.04284 0.6671,-0.045 1.5022,-0.03833l0.0008,-0.1c-0.8294,-0.00662 -1.2796,-0.00507 -1.5214,0.04002c-0.1211,0.02259 -0.2025,0.05805 -0.2505,0.12038c-0.0477,0.06188 -0.0537,0.1397 -0.0537,0.22061l0.1,0zm18.622,0.29516c-0.1854,0 -0.2923,-0.02129 -0.3535,-0.06466c-0.0555,-0.0394 -0.083,-0.10502 -0.083,-0.2305l-0.1,0c0,0.1377 0.0302,0.24467 0.1252,0.31206c0.0893,0.06341 0.2257,0.0831 0.4113,0.0831l0,-0.1zm0.8521,0.25429c-0.0988,-0.07192 -0.2435,-0.13512 -0.3955,-0.18033c-0.1525,-0.04534 -0.3168,-0.07396 -0.4566,-0.07396l0,0.1c0.1277,0 0.2823,0.02644 0.428,0.06981c0.1462,0.04349 0.2791,0.10264 0.3652,0.16534l0.0589,-0.08086zm0.4109,5.34682c-0.0255,-2.38805 -0.0438,-3.65907 -0.0955,-4.36167c-0.0258,-0.35071 -0.0601,-0.56468 -0.11,-0.7065c-0.0514,-0.14626 -0.1194,-0.216 -0.2054,-0.27864l-0.0589,0.08083c0.0727,0.05291 0.1264,0.10707 0.17,0.23097c0.0451,0.12833 0.0789,0.33079 0.1046,0.68068c0.0514,0.69861 0.0697,1.96551 0.0952,4.3554l0.1,-0.00107zm-1.0555,6.51383c0.2568,-0.041 0.4668,-0.0941 0.6271,-0.2539c0.1597,-0.1591 0.2624,-0.416 0.3294,-0.8436c0.1341,-0.8551 0.131,-2.4358 0.099,-5.41633l-0.1,0.00107c0.032,2.98566 0.0346,4.55526 -0.0978,5.39976c-0.0662,0.4221 -0.1648,0.6523 -0.3012,0.7883c-0.1357,0.1353 -0.3166,0.1852 -0.5722,0.2259l0.0157,0.0988zm-0.644,0.3831c0,-0.0549 0.0096,-0.0987 0.0288,-0.1352c0.0192,-0.0364 0.0498,-0.069 0.0974,-0.099c0.0976,-0.0615 0.26,-0.1078 0.5178,-0.1489l-0.0157,-0.0988c-0.2583,0.0412 -0.439,0.0897 -0.5554,0.1631c-0.0595,0.0375 -0.1037,0.0823 -0.1325,0.1369c-0.0287,0.0545 -0.0404,0.1153 -0.0404,0.1819l0.1,0zm2.5479,0.273c-1.2135,0 -1.8589,-0.0055 -2.2015,-0.0481c-0.1731,-0.0215 -0.2575,-0.0515 -0.2996,-0.086c-0.0363,-0.0297 -0.0468,-0.0677 -0.0468,-0.1389l-0.1,0c0,0.0794 0.0112,0.1571 0.0834,0.2163c0.0664,0.0543 0.1771,0.0862 0.3506,0.1078c0.3505,0.0436 1.004,0.0489 2.2139,0.0489l0,-0.1zm2.5479,-0.2951c0,0.0823 -0.0083,0.1251 -0.0415,0.1571c-0.0369,0.0355 -0.1139,0.0671 -0.2831,0.0896c-0.335,0.0445 -0.98,0.0484 -2.2233,0.0484l0,0.1c1.2391,0 1.8931,-0.0037 2.2364,-0.0493c0.17,-0.0226 0.277,-0.0566 0.3394,-0.1167c0.066,-0.0637 0.0721,-0.1465 0.0721,-0.2291l-0.1,0zm-0.3499,-0.2952c0.1385,0 0.2233,0.0247 0.274,0.0684c0.0487,0.042 0.0759,0.1109 0.0759,0.2268l0.1,0c0,-0.1297 -0.0305,-0.2334 -0.1106,-0.3025c-0.0783,-0.0676 -0.1934,-0.0927 -0.3393,-0.0927l0,0.1zm-0.7655,-0.2542c0.0979,0.0712 0.232,0.1344 0.3686,0.1798c0.1365,0.0454 0.2798,0.0744 0.3969,0.0744l0,-0.1c-0.1028,0 -0.235,-0.026 -0.3654,-0.0693c-0.1302,-0.0433 -0.2541,-0.1024 -0.3412,-0.1658l-0.0589,0.0809zm-0.407,-5.72832c0.0239,2.57812 0.0408,3.94412 0.0918,4.69432c0.0254,0.3745 0.0595,0.6003 0.1092,0.7481c0.0251,0.0748 0.0546,0.1308 0.0897,0.1765c0.0352,0.0456 0.0745,0.0789 0.1163,0.1093l0.0589,-0.0808c-0.0378,-0.0275 -0.0688,-0.0543 -0.0959,-0.0895c-0.0271,-0.0352 -0.0519,-0.0809 -0.0742,-0.1473c-0.0452,-0.1346 -0.0789,-0.3492 -0.1043,-0.7231c-0.0507,-0.7464 -0.0676,-2.1086 -0.0915,-4.68845l-0.1,0.00093zm0.3178,-5.83155c-0.0885,0.08821 -0.1594,0.16948 -0.2111,0.32654c-0.0506,0.15334 -0.0825,0.37748 -0.102,0.75089c-0.0391,0.74768 -0.0291,2.11324 -0.0047,4.75412l0.1,-0.00093c-0.0244,-2.6429 -0.0343,-4.00423 0.0045,-4.74797c0.0195,-0.3723 0.0511,-0.585 0.0971,-0.72481c0.0449,-0.13609 0.1038,-0.20427 0.1868,-0.287l-0.0706,-0.07084zm0.8216,-0.36667c-0.1286,0 -0.2838,0.04234 -0.43,0.1078c-0.1466,0.06564 -0.2891,0.15678 -0.3916,0.25887l0.0706,0.07084c0.0919,-0.09155 0.2234,-0.17645 0.3619,-0.23844c0.1388,-0.06218 0.2796,-0.09907 0.3891,-0.09907l0,-0.1zm0.383,-0.29516c0,0.12006 -0.0274,0.18761 -0.0786,0.22842c-0.0545,0.04342 -0.1477,0.06674 -0.3044,0.06674l0,0.1c0.1608,0 0.2841,-0.02266 0.3667,-0.08853c0.086,-0.06848 0.1163,-0.17351 0.1163,-0.30663l-0.1,0zm-2.5479,-0.29516c1.2433,0 1.8883,0.00396 2.2233,0.04847c0.1692,0.02248 0.2462,0.0541 0.2831,0.08962c0.0332,0.032 0.0415,0.07482 0.0415,0.15707l0.1,0c0,-0.08265 -0.0061,-0.16543 -0.0721,-0.22907c-0.0624,-0.06011 -0.1694,-0.09418 -0.3393,-0.11675c-0.3434,-0.04563 -0.9974,-0.04934 -2.2365,-0.04934l0,0.1zm-2.5479,0.29516c0,-0.08225 0.0083,-0.12507 0.0415,-0.15707c0.0369,-0.03552 0.1139,-0.06714 0.2831,-0.08962c0.335,-0.04451 0.98,-0.04847 2.2233,-0.04847l0,-0.1c-1.2391,0 -1.8931,0.00371 -2.2364,0.04934c-0.17,0.02257 -0.277,0.05664 -0.3394,0.11675c-0.066,0.06364 -0.0721,0.14642 -0.0721,0.22907l0.1,0zm18.5584,0.29516c-0.2165,0 -0.375,-0.11816 -0.4248,-0.30785l-0.0967,0.02538c0.0624,0.23797 0.2641,0.38247 0.5215,0.38247l0,-0.1zm0.7977,0.41749c-0.1084,-0.1151 -0.2508,-0.21873 -0.3929,-0.29372c-0.141,-0.0744 -0.2878,-0.12377 -0.4048,-0.12377l0,0.1c0.0934,0 0.2231,0.04098 0.3581,0.11221c0.1339,0.07062 0.267,0.16788 0.3669,0.27386l0.0727,-0.06858zm2.6937,6.44512c-0.6439,-1.68397 -1.262,-3.23553 -1.7457,-4.39433c-0.2418,-0.57935 -0.4502,-1.06085 -0.6114,-1.41176c-0.0806,-0.17541 -0.1497,-0.31865 -0.2054,-0.42534c-0.0278,-0.05333 -0.0526,-0.09799 -0.0739,-0.13319c-0.0209,-0.03439 -0.0402,-0.06244 -0.0573,-0.08052l-0.0727,0.06862c0.0094,0.00997 0.0242,0.03037 0.0445,0.06383c0.0198,0.03265 0.0435,0.07524 0.0708,0.12754c0.0546,0.10455 0.1228,0.24607 0.2031,0.42081c0.1606,0.34937 0.3684,0.82965 0.61,1.40853c0.4832,1.15764 1.1009,2.70824 1.7446,4.39153l0.0934,-0.03572zm2.3047,6.02693l-2.3047,-6.02693l-0.0934,0.03572l2.3047,6.02691l0.0934,-0.0357zm0.5618,0.0197l-0.6043,-0.0517l-0.0085,0.0997l0.6043,0.0516l0.0085,-0.0996zm0.6043,0.0515l-0.6043,-0.0515l-0.0085,0.0996l0.6043,0.0516l0.0085,-0.0997zm1.568,-4.2477l-1.619,4.2799l0.0935,0.0353l1.619,-4.2798l-0.0935,-0.0354zm1.8289,-4.69864c-0.0585,0.11663 -0.2938,0.70491 -0.6242,1.55398c-0.3312,0.85095 -0.7594,1.96763 -1.2047,3.14466l0.0935,0.0354c0.4453,-1.17682 0.8733,-2.29319 1.2044,-3.14379c0.3318,-0.85248 0.5646,-1.43423 0.6204,-1.54541l-0.0894,-0.04484zm0.8514,1.04014c-0.13,-0.34141 -0.2306,-0.60205 -0.3114,-0.79453c-0.0801,-0.19106 -0.1425,-0.3197 -0.1967,-0.39359c-0.0268,-0.03651 -0.0563,-0.06632 -0.0908,-0.08004c-0.0395,-0.01571 -0.0771,-0.00726 -0.1083,0.01466c-0.0282,0.01981 -0.0523,0.05105 -0.0742,0.08547c-0.0223,0.03529 -0.0454,0.07892 -0.07,0.12787l0.0894,0.04488c0.0244,-0.04856 0.0456,-0.08839 0.0651,-0.11918c0.0201,-0.03165 0.0356,-0.04908 0.0472,-0.05721c0.0085,-0.00601 0.0109,-0.00475 0.0139,-0.00356c0.008,0.00318 0.0237,0.01436 0.0471,0.04628c0.0462,0.06298 0.1046,0.18097 0.1851,0.37309c0.08,0.1907 0.18,0.44979 0.3102,0.79146l0.0934,-0.0356zm1.7963,4.6853c-0.6842,-1.77968 -1.4927,-3.88804 -1.7963,-4.68529l-0.0934,0.03559c0.3036,0.79741 1.1121,2.90591 1.7964,4.6856l0.0933,-0.0359zm1.2441,3.2359l-1.244,-3.2359l-0.0934,0.0359l1.2441,3.2359l0.0933,-0.0359zm0.5015,-0.0321l-0.5482,0l0,0.1l0.5482,0l0,-0.1zm0.59,-0.1973c-0.0073,0.0189 -0.0257,0.0419 -0.06,0.0664c-0.0336,0.024 -0.079,0.0468 -0.1337,0.0665c-0.1095,0.0395 -0.2507,0.0644 -0.3963,0.0644l0,0.1c0.1561,0 0.3089,-0.0266 0.4302,-0.0703c0.0606,-0.0218 0.1148,-0.0485 0.1579,-0.0793c0.0426,-0.0303 0.0782,-0.0675 0.0952,-0.1117l-0.0933,-0.036zm1.7684,-4.5305c-0.9239,2.3654 -1.7198,4.4044 -1.7684,4.5305l0.0933,0.036c0.0485,-0.1259 0.8442,-2.1644 1.7683,-4.5301l-0.0932,-0.0364zm2.2748,-5.82344c-0.327,0.83736 -1.3506,3.45801 -2.2748,5.82344l0.0932,0.0364c0.9241,-2.36544 1.9477,-4.9861 2.2747,-5.82347l-0.0931,-0.03637zm1.5177,-2.37755c-0.1504,0.05225 -0.2765,0.10762 -0.3915,0.19287c-0.1153,0.08544 -0.2168,0.19889 -0.3215,0.36412c-0.2077,0.32798 -0.433,0.86876 -0.8047,1.82055l0.0931,0.03638c0.373,-0.95507 0.5947,-1.48541 0.7961,-1.80342c0.0999,-0.15775 0.1936,-0.261 0.2965,-0.33729c0.1032,-0.07649 0.2184,-0.12788 0.3648,-0.17875l-0.0328,-0.09446zm0.4463,-0.38731c0,0.05179 -0.0403,0.1249 -0.1245,0.20111c-0.0817,0.07397 -0.1958,0.14244 -0.3218,0.1862l0.0328,0.09447c0.1379,-0.04789 0.2638,-0.123 0.3561,-0.20654c0.0898,-0.08132 0.1574,-0.17965 0.1574,-0.27524l-0.1,0zm-2.0283,-0.21786c0.8826,0 1.3985,0.01027 1.6939,0.04835c0.1486,0.01916 0.2338,0.0446 0.2811,0.07422c0.0225,0.0141 0.0349,0.02823 0.0421,0.04192c0.0073,0.01385 0.0112,0.0308 0.0112,0.05337l0.1,0c0,-0.03422 -0.0059,-0.06823 -0.0227,-0.10007c-0.017,-0.03201 -0.043,-0.05832 -0.0776,-0.07998c-0.0669,-0.0419 -0.1708,-0.06923 -0.3213,-0.08864c-0.3031,-0.03908 -0.8263,-0.04917 -1.7067,-0.04917l0,0.1zm-2.0284,0.29516c0,-0.08135 0.0082,-0.12622 0.0365,-0.15863c0.0293,-0.03364 0.0896,-0.06442 0.2249,-0.08688c0.269,-0.04468 0.783,-0.04965 1.767,-0.04965l0,-0.1c-0.9789,0 -1.504,0.0046 -1.7834,0.051c-0.139,0.02308 -0.2302,0.05821 -0.2839,0.11985c-0.0548,0.06288 -0.0611,0.14266 -0.0611,0.22431l0.1,0zm0.3688,0.29516c-0.1489,0 -0.2385,-0.0239 -0.2913,-0.06739c-0.0501,-0.0413 -0.0775,-0.10941 -0.0775,-0.22777l-0.1,0c0,0.13172 0.0305,0.23619 0.1139,0.30495c0.0808,0.06657 0.2006,0.09021 0.3549,0.09021l0,-0.1zm1.0168,0.65042c0,-0.22298 -0.0796,-0.39089 -0.2546,-0.4995c-0.1697,-0.10544 -0.4232,-0.15092 -0.7622,-0.15092l0,0.1c0.3342,0 0.5642,0.04565 0.7095,0.13587c0.1402,0.08706 0.2073,0.21936 0.2073,0.41455l0.1,0zm-3.5169,9.54042c0.0126,-0.0125 0.0252,-0.0343 0.0368,-0.056c0.0128,-0.0242 0.0283,-0.0561 0.0462,-0.0948c0.0357,-0.0777 0.0819,-0.1851 0.1368,-0.3178c0.1099,-0.2654 0.2556,-0.6335 0.4246,-1.0703c0.3379,-0.87366 0.7695,-2.02301 1.1946,-3.17682c0.4251,-1.1538 0.8439,-2.3123 1.1565,-3.20427c0.1562,-0.44594 0.286,-0.82552 0.3768,-1.10467c0.0454,-0.13952 0.0811,-0.25435 0.1056,-0.34001c0.0122,-0.04278 0.0217,-0.07877 0.0283,-0.10716c0.0061,-0.02677 0.0107,-0.05127 0.0107,-0.06859l-0.1,0c0,0.00448 -0.0018,0.0186 -0.0082,0.04619c-0.006,0.02598 -0.015,0.0601 -0.027,0.10211c-0.0239,0.08394 -0.0593,0.19744 -0.1045,0.33654c-0.0904,0.27808 -0.2199,0.65683 -0.3761,1.10252c-0.3123,0.8913 -0.7309,2.04926 -1.156,3.20277c-0.425,1.15351 -0.8563,2.30232 -1.194,3.17529c-0.1689,0.4365 -0.3143,0.8038 -0.4237,1.0682c-0.0548,0.1322 -0.1003,0.2382 -0.1353,0.3142c-0.0174,0.038 -0.032,0.0679 -0.0436,0.0895c-0.0057,0.0109 -0.0105,0.0191 -0.0142,0.0251c-0.0043,0.0066 -0.0058,0.008 -0.0049,0.0071l0.0706,0.0709zm-3.2962,-8.99523c0.0142,0.10148 0.0739,0.32021 0.1655,0.62028c0.0922,0.30184 0.2181,0.69019 0.3663,1.13369c0.2965,0.88705 0.683,1.99572 1.0699,3.07618c0.387,1.08044 0.7746,2.13298 1.0733,2.90788c0.1493,0.3873 0.2766,0.7058 0.3706,0.9237c0.0469,0.1088 0.086,0.1936 0.1157,0.2497c0.0146,0.0276 0.0281,0.0506 0.0401,0.0662c0.0054,0.0071 0.0138,0.017 0.0247,0.024c0.0057,0.0036 0.0159,0.0089 0.0295,0.0095c0.0157,0.0006 0.0302,-0.0056 0.0406,-0.016l-0.0706,-0.0708c0.0085,-0.0085 0.0207,-0.0137 0.0338,-0.0132c0.0109,0.0005 0.0181,0.0047 0.0205,0.0062c0.0043,0.0027 0.0046,0.0044 0.0008,-0.0006c-0.0066,-0.0086 -0.0169,-0.0253 -0.031,-0.052c-0.0278,-0.0525 -0.0656,-0.1343 -0.1123,-0.2426c-0.0932,-0.2161 -0.2199,-0.5331 -0.3691,-0.9201c-0.2983,-0.7738 -0.6856,-1.82555 -1.0724,-2.9056c-0.3868,-1.08002 -0.773,-2.18798 -1.0693,-3.07416c-0.1481,-0.44313 -0.2736,-0.83055 -0.3654,-1.1312c-0.0924,-0.30241 -0.1493,-0.51287 -0.1621,-0.60486l-0.0991,0.01379zm0.9942,-1.19561c-0.3719,0 -0.6517,0.09888 -0.8231,0.30552c-0.171,0.20608 -0.2243,0.50751 -0.1711,0.89009l0.0991,-0.01378c-0.0514,-0.36919 0.0035,-0.63712 0.149,-0.81246c0.145,-0.17477 0.3898,-0.26937 0.7461,-0.26937l0,-0.1zm0.3499,-0.29516c0,0.11588 -0.0273,0.18478 -0.076,0.22682c-0.0506,0.04367 -0.1355,0.06834 -0.2739,0.06834l0,0.1c0.1459,0 0.261,-0.02511 0.3392,-0.09263c0.0801,-0.06914 0.1107,-0.17283 0.1107,-0.30253l-0.1,0zm-2.6346,-0.29516c1.2866,0 1.9534,0.00382 2.2993,0.0483c0.1749,0.02248 0.2547,0.05419 0.2928,0.09003c0.0341,0.03198 0.0425,0.07449 0.0425,0.15683l0.1,0c0,-0.08282 -0.0061,-0.16604 -0.074,-0.22974c-0.0638,-0.05985 -0.1734,-0.09379 -0.3486,-0.1163c-0.354,-0.04553 -1.0295,-0.04912 -2.312,-0.04912l0,0.1zm-2.6345,0.29516c0,-0.08234 0.0083,-0.12485 0.0424,-0.15683c0.0382,-0.03584 0.118,-0.06755 0.2929,-0.09003c0.3459,-0.04448 1.0127,-0.0483 2.2992,-0.0483l0,-0.1c-1.2824,0 -1.9579,0.00359 -2.312,0.04912c-0.1751,0.02251 -0.2848,0.05645 -0.3485,0.1163c-0.0679,0.0637 -0.074,0.14692 -0.074,0.22974l0.1,0zm0.2185,0.29516c-0.1144,0 -0.2185,-0.11362 -0.2185,-0.29516l-0.1,0c0,0.21195 0.127,0.39516 0.3185,0.39516l0,-0.1zm1.4888,1.08072c-0.0966,-0.27607 -0.33,-0.5454 -0.605,-0.74508c-0.2747,-0.19957 -0.5992,-0.33564 -0.8838,-0.33564l0,0.1c0.2561,0 0.5602,0.12419 0.8251,0.31655c0.2647,0.19225 0.4816,0.44653 0.5693,0.69719l0.0944,-0.03302zm-1.4954,5.69978c0.7784,-2.07113 1.2193,-3.3012 1.4322,-4.10816c0.2134,-0.80885 0.2001,-1.20054 0.0632,-1.59163l-0.0944,0.03303c0.1277,0.36466 0.1454,0.73395 -0.0655,1.53309c-0.2114,0.80102 -0.6502,2.02592 -1.4291,4.09849l0.0936,0.03518zm-1.3228,3.52024l1.3228,-3.52024l-0.0936,-0.03518l-1.3228,3.52022l0.0936,0.0352zm-0.3778,-0.6707l0.2849,0.6726l0.0921,-0.039l-0.2849,-0.6726l-0.0921,0.039zm-1.813,-4.85207c0.8395,2.29667 1.6556,4.48077 1.813,4.85207l0.0921,-0.039c-0.1561,-0.3684 -0.9711,-2.54924 -1.8112,-4.84741l-0.0939,0.03434zm-0.5374,-4.77797c-0.1365,0 -0.2584,0.00305 -0.3626,0.0178c-0.1041,0.01472 -0.1952,0.04169 -0.2671,0.09282c-0.1494,0.10617 -0.1939,0.29821 -0.1555,0.60842c0.0388,0.31225 0.164,0.76433 0.3813,1.4174c0.2176,0.65403 0.5288,1.51334 0.9413,2.64153l0.0939,-0.03434c-0.4126,-1.1285 -0.7233,-1.98638 -0.9403,-2.63876c-0.2174,-0.65333 -0.3396,-1.09686 -0.3769,-1.39814c-0.0376,-0.30332 0.013,-0.44272 0.1141,-0.5146c0.0533,-0.0379 0.1263,-0.06162 0.2232,-0.07532c0.0966,-0.01368 0.2124,-0.01681 0.3486,-0.01681l0,-0.1zm0.4484,-0.29516c0,0.12659 -0.0275,0.19181 -0.0841,0.23095c-0.0626,0.04338 -0.1726,0.06421 -0.3643,0.06421l0,0.1c0.1912,0 0.3304,-0.01911 0.4212,-0.082c0.097,-0.06713 0.1272,-0.17449 0.1272,-0.31316l-0.1,0zm-2.5316,-0.29516c1.2352,0 1.876,0.00396 2.209,0.04846c0.1682,0.02248 0.2446,0.05408 0.2812,0.08954c0.0331,0.03201 0.0414,0.07489 0.0414,0.15716l0.1,0c0,-0.08264 -0.0061,-0.16535 -0.0718,-0.22898c-0.0621,-0.06017 -0.1686,-0.09426 -0.3376,-0.11684c-0.3414,-0.04563 -0.9913,-0.04934 -2.2222,-0.04934l0,0.1zm-2.4429,0.28249c-0.0109,-0.04175 -0.0179,-0.0737 -0.0189,-0.09992c-0.0009,-0.02496 0.0036,-0.04072 0.0125,-0.05302c0.0094,-0.01312 0.0281,-0.02856 0.0674,-0.04357c0.0394,-0.01502 0.0954,-0.02813 0.1741,-0.03904c0.3173,-0.04396 0.9571,-0.04694 2.2078,-0.04694l0,-0.1c-1.2459,0 -1.8954,0.00271 -2.2215,0.04789c-0.082,0.01136 -0.1465,0.02576 -0.196,0.04467c-0.0496,0.01892 -0.0881,0.04384 -0.1131,0.07872c-0.0256,0.03571 -0.0326,0.0756 -0.0311,0.11515c0.0015,0.03828 0.0111,0.07971 0.0221,0.1214l0.0967,-0.02534zm35.1009,0.41274c-0.004,-0.00913 -0.0088,-0.02969 -0.0128,-0.06091c-0.0039,-0.02955 -0.0065,-0.06375 -0.0082,-0.09668c-0.0018,-0.03281 -0.0027,-0.0637 -0.0031,-0.08644c-0.0002,-0.01135 -0.0003,-0.02062 -0.0004,-0.02703c0,-0.00321 0,-0.00569 0,-0.00736c0,-0.00084 0,-0.00147 0,-0.00188c0,-0.00021 0,-0.00036 0,-0.00046c0,-0.00005 0,-0.00008 0,-0.0001c0,-0.00001 0,-0.00002 0,-0.00002c0,0 0,0 0,-0.00001c0,0.00001 0,0.00001 -0.05,-0.00004c-0.05,-0.00004 -0.05,-0.00004 -0.05,-0.00003c0,0 0,0.00001 0,0.00001c0,0.00001 0,0.00003 0,0.00005c0,0.00003 0,0.00009 0,0.00015c0,0.00013 0,0.00032 0,0.00056c0,0.00048 0,0.00118 0,0.00209c0,0.00181 0,0.00445 0,0.00781c0.0001,0.00673 0.0002,0.01638 0.0004,0.02814c0.0005,0.02349 0.0014,0.05559 0.0032,0.08988c0.0018,0.03417 0.0046,0.07116 0.0089,0.10423c0.0041,0.03139 0.0101,0.06487 0.0206,0.08852l0.0914,-0.04048zm0.1696,0.11042c0.0066,-0.04957 0.0066,-0.04957 0.0066,-0.04957c0,0 0,0 0,0c0,0 0,0 0,0c0,0 0,0 0,0c-0.0001,-0.00001 -0.0002,-0.00002 -0.0003,-0.00004c-0.0003,-0.00004 -0.0007,-0.0001 -0.0013,-0.00018c-0.0012,-0.00017 -0.003,-0.00044 -0.0054,-0.0008c-0.0047,-0.00074 -0.0116,-0.00188 -0.02,-0.00344c-0.0169,-0.00315 -0.0395,-0.00794 -0.0626,-0.01455c-0.0235,-0.00671 -0.0457,-0.01478 -0.0628,-0.02394c-0.0085,-0.00454 -0.0147,-0.00879 -0.0188,-0.01245c-0.0042,-0.00371 -0.0051,-0.00569 -0.005,-0.00545l-0.0914,0.04048c0.0142,0.03206 0.0437,0.05259 0.068,0.06559c0.026,0.01389 0.0558,0.02427 0.0825,0.03191c0.0271,0.00775 0.0529,0.0132 0.0718,0.01672c0.0095,0.00177 0.0174,0.00307 0.023,0.00394c0.0028,0.00043 0.005,0.00076 0.0065,0.00098c0.0008,0.00011 0.0014,0.0002 0.0019,0.00026c0.0002,0.00003 0.0004,0.00005 0.0005,0.00007c0.0001,0.00001 0.0001,0.00002 0.0002,0.00002c0,0.00001 0,0.00001 0,0.00001c0,0 0,0 0,0c0.0001,0 0.0001,0.00001 0.0066,-0.04956zm0.3415,0.03544c-0.1039,-0.02573 -0.2135,-0.05285 -0.3285,-0.08373l-0.0259,0.09658c0.1161,0.03117 0.2265,0.05852 0.3303,0.08422l0.0241,-0.09707zm1.0719,0.5932c-0.0796,-0.18634 -0.2193,-0.30264 -0.4026,-0.38808c-0.1811,-0.08441 -0.4092,-0.1407 -0.6693,-0.20512l-0.0241,0.09707c0.2633,0.0652 0.4808,0.11926 0.6512,0.19868c0.1681,0.07841 0.2857,0.17945 0.3529,0.33675l0.0919,-0.0393zm0.1108,5.38618c-0.0006,-2.16339 -0.0025,-3.44755 -0.0166,-4.21983c-0.0071,-0.38602 -0.0172,-0.64525 -0.0319,-0.82289c-0.0146,-0.17632 -0.034,-0.27739 -0.0623,-0.34348l-0.0919,0.03933c0.0214,0.04999 0.04,0.13686 0.0545,0.31241c0.0145,0.17423 0.0246,0.43076 0.0316,0.81646c0.0141,0.77115 0.016,2.05419 0.0166,4.21803l0.1,-0.00003zm-0.1253,5.44229c0.0651,-0.1609 0.0954,-0.3861 0.1107,-1.1314c0.0153,-0.7485 0.0152,-2.0298 0.0146,-4.31089l-0.1,0.00003c0.0006,2.28176 0.0007,3.56156 -0.0146,4.30876c-0.0154,0.7503 -0.0465,0.9554 -0.1034,1.096l0.0927,0.0375zm-1.1426,0.7896c0.336,-0.0944 0.5818,-0.1927 0.7635,-0.3171c0.1834,-0.1257 0.2998,-0.2768 0.3791,-0.4725l-0.0927,-0.0375c-0.0722,0.1783 -0.1764,0.3134 -0.3429,0.4275c-0.1682,0.1152 -0.4016,0.21 -0.7341,0.3033l0.0271,0.0963zm-0.355,0.1445c0.0138,-0.0128 0.0411,-0.029 0.0793,-0.0468c0.037,-0.0171 0.0798,-0.0337 0.121,-0.0484c0.0411,-0.0145 0.0798,-0.0269 0.1083,-0.0356c0.0142,-0.0044 0.0259,-0.0078 0.0339,-0.0101c0.004,-0.0012 0.0072,-0.0021 0.0093,-0.0027c0.001,-0.0003 0.0018,-0.0005 0.0023,-0.0007c0.0003,0 0.0005,-0.0001 0.0006,-0.0001c0,0 0.0001,0 0.0001,-0.0001c0,0 0,0 0,0c0,0 0,0 0,0c0,0 0,0 -0.0134,-0.0481c-0.0134,-0.0482 -0.0134,-0.0482 -0.0134,-0.0482c0,0 0,0 0,0c0,0 0,0 0,0c-0.0001,0 -0.0002,0.0001 -0.0002,0.0001c-0.0002,0 -0.0004,0.0001 -0.0007,0.0002c-0.0006,0.0001 -0.0015,0.0004 -0.0027,0.0007c-0.0022,0.0007 -0.0055,0.0016 -0.0098,0.0028c-0.0084,0.0025 -0.0205,0.0061 -0.0353,0.0106c-0.0294,0.009 -0.0696,0.0218 -0.1124,0.037c-0.0427,0.0152 -0.0888,0.0329 -0.1297,0.0519c-0.0396,0.0184 -0.0791,0.04 -0.1051,0.064l0.0679,0.0735zm-0.1286,0.2012c0.0498,0.0045 0.0498,0.0045 0.0498,0.0045c0,0 0,0.0001 0,0.0001c0,0 0,0 0,0c0,0 0,0 0,0c0,0 0,-0.0001 0,-0.0002c0,-0.0002 0,-0.0005 0.0001,-0.001c0.0001,-0.001 0.0003,-0.0025 0.0005,-0.0046c0.0005,-0.0041 0.0013,-0.0101 0.0025,-0.0177c0.0025,-0.0153 0.0065,-0.0363 0.0128,-0.0593c0.0131,-0.0483 0.0338,-0.0962 0.0629,-0.123l-0.0679,-0.0735c-0.0506,0.0468 -0.0772,0.1178 -0.0915,0.1702c-0.0074,0.0272 -0.0121,0.0519 -0.015,0.0697c-0.0014,0.009 -0.0024,0.0163 -0.003,0.0215c-0.0004,0.0026 -0.0006,0.0047 -0.0007,0.0061c-0.0001,0.0008 -0.0002,0.0014 -0.0002,0.0018c-0.0001,0.0002 -0.0001,0.0004 -0.0001,0.0005c0,0.0001 0,0.0001 0,0.0002c0,0 0,0 0,0.0001c0,0 0,0 0,0c0,0 0,0 0.0498,0.0046zm0.0985,0.1917c-0.0233,-0.025 -0.0371,-0.0685 -0.0437,-0.1135c-0.0031,-0.0213 -0.0043,-0.0407 -0.0048,-0.0548c-0.0002,-0.007 -0.0002,-0.0126 -0.0002,-0.0163c0.0001,-0.0018 0.0001,-0.0032 0.0001,-0.0041c0,-0.0004 0,-0.0007 0,-0.0009c0,-0.0001 0,-0.0001 0,-0.0001c0,0 0,0 0,0c0,0 0,0 0,0c0,0 0,0 0,0c0,0 0,0 -0.0499,-0.002c-0.05,-0.0021 -0.05,-0.0021 -0.05,-0.0021c0,0 0,0 0,0.0001c0,0 0,0 0,0c0,0.0001 0,0.0001 0,0.0002c0,0.0001 0,0.0003 0,0.0005c0,0.0004 0,0.001 -0.0001,0.0017c0,0.0014 0,0.0034 -0.0001,0.0058c0,0.0049 0,0.0118 0.0003,0.0203c0.0005,0.0168 0.002,0.0402 0.0058,0.0662c0.0073,0.0496 0.0245,0.1189 0.0694,0.1672l0.0732,-0.0682zm0.2135,0.0724c-0.0094,-0.0491 -0.0094,-0.0491 -0.0094,-0.0491c0,0 0,0 0,0c0,0 0,0 0.0001,0c0,0 0,0 -0.0001,0c0,0 -0.0001,0 -0.0002,0c-0.0002,0.0001 -0.0006,0.0001 -0.0011,0.0002c-0.0011,0.0002 -0.0028,0.0005 -0.0051,0.0009c-0.0045,0.0007 -0.0112,0.0017 -0.0195,0.0026c-0.0167,0.002 -0.0394,0.0039 -0.0638,0.0037c-0.0246,-0.0002 -0.0492,-0.0025 -0.0704,-0.0081c-0.0216,-0.0057 -0.0358,-0.0137 -0.044,-0.0226l-0.0732,0.0682c0.0258,0.0277 0.0599,0.0428 0.0917,0.0511c0.0321,0.0085 0.0657,0.0112 0.0951,0.0114c0.0297,0.0002 0.0567,-0.002 0.0763,-0.0043c0.0098,-0.0012 0.0178,-0.0024 0.0235,-0.0033c0.0029,-0.0004 0.0051,-0.0008 0.0068,-0.0011c0.0008,-0.0001 0.0014,-0.0003 0.0019,-0.0003c0.0002,-0.0001 0.0004,-0.0001 0.0005,-0.0001c0.0001,-0.0001 0.0002,-0.0001 0.0002,-0.0001c0.0001,0 0.0001,0 0.0001,0c0,0 0,0 0,0c0,0 0.0001,0 -0.0094,-0.0491zm1.7334,-0.0454l-1.7332,-0.0046l-0.0003,0.1l1.7332,0.0046l0.0003,-0.1zm2.8749,0.0232l-2.8746,-0.0232l-0.0009,0.1l2.8747,0.0232l0.0008,-0.1zm0.1386,-0.043c-0.0194,0.0248 -0.0496,0.0368 -0.0804,0.0417c-0.0149,0.0023 -0.0285,0.0027 -0.0383,0.0025c-0.0048,-0.0001 -0.0086,-0.0003 -0.011,-0.0005c-0.0012,-0.0001 -0.0021,-0.0002 -0.0026,-0.0002c-0.0002,-0.0001 -0.0003,-0.0001 -0.0004,-0.0001c0,0 0,0 0.0001,0c0,0 0,0 0.0001,0c0,0 0,0 0,0c0,0 0,0 0,0c0.0001,0 0.0001,0 -0.0065,0.0496c-0.0065,0.0496 -0.0065,0.0496 -0.0065,0.0496c0,0 0,0 0,0c0.0001,0 0.0001,0 0.0001,0c0.0001,0 0.0002,0 0.0002,0c0.0002,0.0001 0.0004,0.0001 0.0006,0.0001c0.0004,0 0.0009,0.0001 0.0016,0.0002c0.0013,0.0001 0.003,0.0003 0.0051,0.0005c0.0042,0.0003 0.0101,0.0007 0.0172,0.0008c0.0142,0.0003 0.0338,-0.0003 0.0559,-0.0037c0.0432,-0.0069 0.1021,-0.026 0.1436,-0.0789l-0.0788,-0.0616zm0.0848,-0.1993c-0.0498,0.005 -0.0498,0.005 -0.0498,0.005c0,0 0,0 0,0c0,0 0,0 0,0c0,0 0,-0.0001 0,0c0,0 0,0 0,0.0001c0.0001,0.0002 0.0001,0.0005 0.0001,0.0009c0.0001,0.0009 0.0002,0.0023 0.0003,0.0042c0.0003,0.0037 0.0006,0.0094 0.0009,0.0164c0.0004,0.0142 0.0005,0.0338 -0.0012,0.0554c-0.0036,0.0457 -0.0142,0.0906 -0.0351,0.1173l0.0788,0.0616c0.04,-0.051 0.0521,-0.1213 0.056,-0.1711c0.002,-0.0262 0.002,-0.0496 0.0014,-0.0664c-0.0003,-0.0085 -0.0007,-0.0154 -0.001,-0.0203c-0.0002,-0.0024 -0.0003,-0.0044 -0.0005,-0.0058c0,-0.0006 -0.0001,-0.0012 -0.0001,-0.0016c0,-0.0002 0,-0.0004 -0.0001,-0.0005c0,-0.0001 0,-0.0002 0,-0.0002c0,0 0,0 0,-0.0001c0,0 0,0 0,0c0,0 0,0 -0.0497,0.0051zm-0.1106,-0.2005c0.0263,0.0254 0.0429,0.0714 0.052,0.1191c0.0043,0.0226 0.0064,0.0433 0.0075,0.0583c0.0006,0.0075 0.0008,0.0135 0.001,0.0175c0,0.002 0,0.0035 0.0001,0.0045c0,0.0004 0,0.0008 0,0.001c0,0 0,0.0001 0,0.0001c0,0 0,0 0,0c0,0 0,0 0,0c0,0 0,0 0,0c0,0 0,0 0.05,0c0.05,0 0.05,-0.0001 0.05,-0.0001c0,0 0,0 0,0c0,0 0,0 0,-0.0001c0,0 0,-0.0001 0,-0.0001c0,-0.0002 0,-0.0004 0,-0.0006c0,-0.0004 0,-0.001 0,-0.0018c-0.0001,-0.0014 -0.0001,-0.0035 -0.0002,-0.0061c-0.0002,-0.0052 -0.0005,-0.0125 -0.0011,-0.0215c-0.0013,-0.0178 -0.0039,-0.0424 -0.0091,-0.0697c-0.0098,-0.0521 -0.0311,-0.1244 -0.0806,-0.1723l-0.0696,0.0718zm-0.3346,-0.1782c-0.0114,0.0487 -0.0114,0.0487 -0.0114,0.0487c0,0 0,0 0,0c0,0 0,0 0,0c0.0001,0 0.0001,0 0.0002,0c0.0001,0.0001 0.0003,0.0001 0.0005,0.0002c0.0005,0.0001 0.0013,0.0003 0.0023,0.0005c0.0021,0.0005 0.0052,0.0013 0.0092,0.0023c0.0079,0.0019 0.0194,0.0048 0.0335,0.0086c0.0282,0.0074 0.0664,0.0181 0.1069,0.031c0.0405,0.0129 0.0825,0.0278 0.1185,0.0435c0.0374,0.0165 0.0628,0.0316 0.0749,0.0434l0.0696,-0.0718c-0.0257,-0.025 -0.0654,-0.046 -0.1043,-0.0631c-0.0405,-0.0178 -0.0861,-0.0339 -0.1284,-0.0473c-0.0425,-0.0135 -0.0824,-0.0247 -0.1116,-0.0324c-0.0147,-0.0039 -0.0267,-0.0069 -0.0351,-0.009c-0.0042,-0.0011 -0.0075,-0.0019 -0.0098,-0.0024c-0.0011,-0.0003 -0.002,-0.0005 -0.0026,-0.0006c-0.0003,-0.0001 -0.0005,-0.0002 -0.0007,-0.0002c-0.0001,0 -0.0001,0 -0.0002,0c0,0 0,-0.0001 0,-0.0001c0,0 -0.0001,0 -0.0001,0c0,0 0,0 -0.0114,0.0487zm-1.1755,-0.6861c0.1572,0.3606 0.5109,0.5741 1.1636,0.7347l0.0239,-0.0971c-0.6458,-0.159 -0.9583,-0.362 -1.0958,-0.6775l-0.0917,0.0399zm-0.1418,-2.3618c0.0083,0.706 0.0153,1.2299 0.034,1.6087c0.0094,0.1894 0.0217,0.3435 0.0388,0.4667c0.0169,0.1225 0.0389,0.2173 0.069,0.2864l0.0917,-0.0399c-0.0246,-0.0566 -0.0451,-0.1407 -0.0617,-0.2602c-0.0164,-0.1189 -0.0286,-0.2698 -0.0379,-0.458c-0.0186,-0.3764 -0.0256,-0.8981 -0.0339,-1.6049l-0.1,0.0012zm0,-2.07194l0,2.07134l0.1,0l0,-2.07134l-0.1,0zm0.2876,0.0954c-0.0697,-0.0488 -0.138,-0.09663 -0.213,-0.13895l-0.0491,0.0871c0.07,0.03954 0.1344,0.08453 0.2048,0.13379l0.0573,-0.08194zm2.2692,0.55805c-0.7724,-0.02235 -1.2587,-0.10581 -1.5916,-0.2111c-0.3316,-0.10485 -0.5131,-0.2319 -0.6776,-0.34695l-0.0573,0.08194c0.167,0.11681 0.3585,0.25086 0.7048,0.36036c0.3448,0.10906 0.8411,0.1932 1.6188,0.21571l0.0029,-0.09996zm3.6367,-1.7302c-0.6633,0.9582 -1.7777,1.78401 -3.6367,1.7302l-0.0029,0.09996c1.8966,0.0549 3.0415,-0.79046 3.7219,-1.77325l-0.0823,-0.05691zm0.4329,-4.07646c0.4891,1.61197 0.229,3.12039 -0.4329,4.07646l0.0823,0.05691c0.6818,-0.98493 0.9429,-2.52592 0.4463,-4.16241l-0.0957,0.02904zm-3.9272,-2.67335c2.0178,0.10083 3.4419,1.07413 3.9272,2.67335l0.0957,-0.02904c-0.5005,-1.64927 -1.969,-2.6418 -4.0179,-2.74418l-0.005,0.09987zm-3.4589,0.03845c0.8618,-0.03911 2.4017,-0.09128 3.4589,-0.03845l0.005,-0.09987c-1.0626,-0.0531 -2.6068,-0.00068 -3.4685,0.03842l0.0046,0.0999zm-0.2415,0.01083l0.2415,-0.01083l-0.0045,-0.0999l-0.2415,0.01083l0.0045,0.0999zm-2.1863,0.15332c0.4669,-0.04442 1.4043,-0.1192 2.1862,-0.15332l-0.0043,-0.09991c-0.7841,0.03421 -1.7232,0.10915 -2.1914,0.15368l0.0095,0.09955zm-0.0013,0.00012l0.0013,-0.00012l-0.0095,-0.09955l-0.0013,0.00012l0.0095,0.09955zm-0.1409,0.03963c0.0154,-0.01952 0.0197,-0.02191 0.0292,-0.02491c0.017,-0.00541 0.045,-0.00837 0.1117,-0.01472l-0.0095,-0.09955c-0.0606,0.00576 -0.1025,0.00945 -0.1325,0.01896c-0.0376,0.01193 -0.0573,0.03273 -0.0775,0.05839l0.0786,0.06183zm-0.0683,0.09939c0.0498,-0.0039 0.0498,-0.00389 0.0498,-0.00388c0,0.00001 0,0.00002 0,0.00002c0.0001,0.00002 0.0001,0.00003 0.0001,0.00004c0,0.00002 0,0.00003 0,0.00004c0,0.00002 0,0.00002 0,0c0,-0.00003 -0.0001,-0.00015 -0.0001,-0.00033c0,-0.00037 0,-0.00103 -0.0001,-0.00195c-0.0001,-0.00184 -0.0002,-0.00468 -0.0002,-0.0083c0,-0.00731 0.0002,-0.01744 0.0014,-0.02862c0.0025,-0.02449 0.0086,-0.04522 0.0174,-0.05641l-0.0786,-0.06183c-0.0268,0.03415 -0.0353,0.07857 -0.0383,0.1079c-0.0016,0.01573 -0.002,0.02968 -0.0019,0.03972c0.0001,0.00505 0.0002,0.0092 0.0003,0.01219c0.0001,0.00149 0.0002,0.00271 0.0002,0.0036c0.0001,0.00045 0.0001,0.00082 0.0001,0.00111c0,0.00014 0,0.00026 0,0.00036c0,0.00006 0,0.0001 0,0.00014c0,0.00002 0,0.00004 0,0.00006c0,0.00001 0,0.00002 0,0.00002c0.0001,0.00002 0.0001,0.00003 0.0499,-0.00388zm8.3491,3.83205c0,0.71328 -0.0147,1.80093 -0.7521,2.49407l0.0685,0.07287c0.7734,-0.72707 0.7836,-1.861 0.7836,-2.56694l-0.1,0zm-3.0121,-3.2025c1.2528,0 1.984,0.5263 2.4137,1.18628c0.4319,0.6634 0.5617,1.46635 0.5985,2.01954l0.0998,-0.00665c-0.0373,-0.55948 -0.1688,-1.38277 -0.6145,-2.06745c-0.448,-0.6881 -1.2106,-1.23172 -2.4975,-1.23172l0,0.1zm-1.7922,0.84766c0.0155,-0.38021 0.3016,-0.60021 0.6766,-0.72263c0.374,-0.1221 0.8193,-0.14019 1.1131,-0.12509l0.0051,-0.09987c-0.3,-0.01541 -0.759,0.00248 -1.1492,0.1299c-0.3893,0.1271 -0.7274,0.37017 -0.7455,0.81361l0.0999,0.00408zm-0.0438,2.72289c-0.0047,-0.78081 -0.0029,-1.42534 0.0046,-1.89269c0.0037,-0.23372 0.0089,-0.42282 0.0155,-0.56236c0.0066,-0.14207 0.0145,-0.2272 0.0222,-0.2576l-0.0969,-0.02457c-0.0108,0.04236 -0.0187,0.139 -0.0252,0.27749c-0.0066,0.14102 -0.0119,0.33127 -0.0156,0.56543c-0.0076,0.46839 -0.0093,1.11374 -0.0046,1.89491l0.1,-0.00061zm0.015,2.493l-0.015,-2.49299l-0.1,0.0006l0.015,2.493l0.1,-0.00061zm0.2318,0.09222l-0.2585,-0.13615l-0.0466,0.08847l0.2585,0.13615l0.0466,-0.08847zm0.014,0.00738l-0.014,-0.00736l-0.0466,0.08843l0.0139,0.00737l0.0467,-0.08844zm0.6267,0.22763c-0.3111,-0.06092 -0.488,-0.1544 -0.6267,-0.22763l-0.0467,0.08843c0.1418,0.07489 0.3289,0.17364 0.6542,0.23733l0.0192,-0.09813zm3.2085,-0.69421c-0.3682,0.34611 -0.9186,0.56947 -1.5059,0.68117c-0.5868,0.11157 -1.2045,0.11057 -1.7026,0.01304l-0.0192,0.09813c0.5116,0.10019 1.1423,0.10082 1.7404,-0.01293c0.5976,-0.11363 1.1685,-0.34254 1.5558,-0.70654l-0.0685,-0.07287zm-15.5436,-6.69161c-0.0179,-0.04668 -0.0179,-0.04668 -0.0179,-0.04668c0,0 0,0 0,0c0,0 0,0.00001 0,0.00001c-0.0001,0 -0.0001,0.00001 -0.0001,0.00002c-0.0001,0.00003 -0.0002,0.00006 -0.0003,0.00011c-0.0002,0.00009 -0.0006,0.00023 -0.001,0.00041c-0.001,0.00036 -0.0024,0.00091 -0.0043,0.00163c-0.0037,0.00144 -0.0093,0.00357 -0.0166,0.00636c-0.0145,0.00557 -0.0359,0.01374 -0.0631,0.02414c-0.0545,0.0208 -0.1325,0.05051 -0.2265,0.08613l0.0354,0.09351c0.0941,-0.03566 0.1722,-0.06539 0.2267,-0.08622c0.0273,-0.01041 0.0487,-0.0186 0.0633,-0.02418c0.0073,-0.00279 0.0129,-0.00493 0.0166,-0.00637c0.0019,-0.00073 0.0033,-0.00127 0.0043,-0.00164c0.0005,-0.00019 0.0008,-0.00032 0.0011,-0.00042c0.0001,-0.00004 0.0002,-0.00008 0.0002,-0.0001c0.0001,-0.00001 0.0001,-0.00002 0.0001,-0.00003c0,0 0,0 0,-0.00001c0,0 0,0 0,0c0,0 0,0 -0.0179,-0.04667zm0.4112,-0.03089c-0.0336,-0.04276 -0.0825,-0.06096 -0.1288,-0.06738c-0.0464,-0.00642 -0.0958,-0.00196 -0.1392,0.00571c-0.0438,0.00775 -0.0841,0.01928 -0.1133,0.02876c-0.0147,0.00476 -0.0267,0.00906 -0.0351,0.01221c-0.0042,0.00158 -0.0076,0.00286 -0.0099,0.00378c-0.0012,0.00046 -0.0021,0.00083 -0.0027,0.00109c-0.0004,0.00013 -0.0006,0.00024 -0.0008,0.00032c-0.0001,0.00004 -0.0002,0.00007 -0.0003,0.00009c0,0.00002 0,0.00003 0,0.00004c-0.0001,0 -0.0001,0.00001 -0.0001,0.00001c0,0 0,0.00001 0.019,0.04626c0.019,0.04624 0.019,0.04625 0.019,0.04625c0,0 0,0 0,0.00001c0,0 0,0 0,0c0,0 0,-0.00001 0,-0.00003c0.0001,-0.00003 0.0003,-0.00009 0.0005,-0.00017c0.0004,-0.00017 0.0011,-0.00044 0.002,-0.0008c0.0018,-0.00072 0.0046,-0.0018 0.0082,-0.00315c0.0073,-0.00272 0.018,-0.00655 0.0311,-0.01081c0.0264,-0.00857 0.062,-0.0187 0.0998,-0.02539c0.0383,-0.00677 0.0762,-0.00954 0.108,-0.00513c0.0319,0.00441 0.0522,0.0151 0.064,0.0301l0.0786,-0.06177zm0.3899,0.96356c-0.1263,-0.32591 -0.2151,-0.555 -0.2757,-0.70702c-0.0304,-0.07596 -0.0539,-0.13319 -0.0717,-0.17382c-0.0088,-0.0203 -0.0165,-0.03694 -0.023,-0.04993c-0.006,-0.01202 -0.0126,-0.02403 -0.0195,-0.03279l-0.0786,0.06178c-0.0003,-0.0004 0.0004,0.00046 0.0022,0.00357c0.0017,0.0029 0.0038,0.00691 0.0065,0.01228c0.0054,0.01076 0.0123,0.0256 0.0208,0.04517c0.0171,0.03908 0.0401,0.09505 0.0704,0.17081c0.0604,0.15143 0.149,0.37992 0.2753,0.70608l0.0933,-0.03613zm0.1667,0.42986c-0.0618,-0.15906 -0.1171,-0.30194 -0.1667,-0.42986l-0.0933,0.03613c0.0496,0.12792 0.105,0.27083 0.1667,0.42992l0.0933,-0.03619zm1.202,3.09402c-0.2846,-0.73173 -0.8255,-2.12403 -1.202,-3.09401l-0.0933,0.03618c0.3766,0.97 0.9175,2.36233 1.2022,3.09409l0.0931,-0.03626zm1.2511,3.21783c-0.4035,-1.03806 -0.9664,-2.48608 -1.2511,-3.21783l-0.0931,0.03625c0.2846,0.73174 0.8475,2.17975 1.251,3.2178l0.0932,-0.03622zm1.1507,2.95927c-0.2294,-0.5895 -0.7473,-1.9212 -1.1507,-2.95927l-0.0932,0.03622c0.4034,1.03805 0.9213,2.36975 1.1507,2.95935l0.0932,-0.0363zm0.5985,1.303c-0.0178,-0.0244 -0.0499,-0.0803 -0.0927,-0.1631c-0.0422,-0.0816 -0.0934,-0.1865 -0.1493,-0.3065c-0.1119,-0.2401 -0.2421,-0.5398 -0.3565,-0.8334l-0.0931,0.0363c0.1152,0.2959 0.2463,0.5975 0.3589,0.8393c0.0563,0.1209 0.1082,0.2271 0.1512,0.3103c0.0424,0.082 0.0778,0.1446 0.1009,0.1762l0.0806,-0.0591zm0.1291,0.2017c-0.0448,-0.0743 -0.0872,-0.1447 -0.129,-0.2017l-0.0807,0.0591c0.0386,0.0527 0.0786,0.1188 0.1241,0.1942l0.0856,-0.0516zm0.8575,0.7411c-0.4514,-0.0728 -0.6785,-0.4446 -0.8575,-0.7411l-0.0856,0.0516c0.1754,0.2906 0.4238,0.707 0.9272,0.7882l0.0159,-0.0987zm0.4576,0.1355c-0.0136,-0.0144 -0.0325,-0.025 -0.0494,-0.0329c-0.0181,-0.0085 -0.0393,-0.0165 -0.0618,-0.0238c-0.045,-0.0148 -0.0986,-0.0284 -0.1494,-0.0399c-0.051,-0.0116 -0.1002,-0.0213 -0.1365,-0.0281c-0.0181,-0.0034 -0.0332,-0.0061 -0.0437,-0.0079c-0.0052,-0.0009 -0.0093,-0.0016 -0.0122,-0.0021c-0.0014,-0.0003 -0.0025,-0.0004 -0.0032,-0.0006c-0.0004,0 -0.0007,-0.0001 -0.0009,-0.0001c-0.0001,0 -0.0001,0 -0.0002,0c0,0 0,-0.0001 0,-0.0001c-0.0001,0 -0.0001,0 -0.0001,0c0,0 0,0 -0.0081,0.0494c-0.0082,0.0493 -0.0082,0.0493 -0.0082,0.0493c0,0 0,0 0,0c0,0 0,0 0,0c0.0001,0 0.0001,0 0.0002,0c0.0002,0.0001 0.0004,0.0001 0.0008,0.0002c0.0006,0.0001 0.0017,0.0002 0.003,0.0005c0.0027,0.0004 0.0066,0.0011 0.0117,0.002c0.0102,0.0018 0.0248,0.0044 0.0426,0.0077c0.0355,0.0066 0.0833,0.0161 0.1326,0.0273c0.0496,0.0112 0.0998,0.0241 0.1405,0.0374c0.0203,0.0067 0.0374,0.0132 0.0503,0.0193c0.0065,0.003 0.0114,0.0057 0.0149,0.0079c0.0037,0.0024 0.0048,0.0035 0.0044,0.0032l0.0727,-0.0687zm0.0316,0.1994c0.0497,-0.0059 0.0497,-0.0059 0.0497,-0.0059c0,0 0,-0.0001 0,-0.0001c0,0 0,0 0,0c-0.0001,-0.0001 -0.0001,-0.0001 -0.0001,-0.0002c0,-0.0001 0,-0.0002 0,-0.0004c-0.0001,-0.0003 -0.0001,-0.0007 -0.0002,-0.0012c-0.0001,-0.0011 -0.0003,-0.0025 -0.0006,-0.0043c-0.0005,-0.0036 -0.0013,-0.0086 -0.0025,-0.0147c-0.0023,-0.0122 -0.0059,-0.029 -0.0116,-0.048c-0.0108,-0.0366 -0.0306,-0.0868 -0.0663,-0.1246l-0.0727,0.0687c0.0196,0.0208 0.0339,0.0531 0.0432,0.0843c0.0044,0.015 0.0073,0.0284 0.0091,0.038c0.0009,0.0048 0.0015,0.0086 0.0019,0.0111c0.0002,0.0012 0.0003,0.0021 0.0004,0.0027c0,0.0002 0.0001,0.0004 0.0001,0.0005c0,0 0,0 0,0c0,0 0,0 0,0c0,0 0,0 0,0c0,0 0,0 0,0c0,0 0,-0.0001 0.0496,-0.0059zm0.05,0.2l0,-0.2l-0.1,0l0,0.2l0.1,0zm-0.0463,0.1235c0.0195,-0.0277 0.0308,-0.0568 0.0372,-0.0782c0.0032,-0.0109 0.0054,-0.0202 0.0067,-0.027c0.0007,-0.0034 0.0011,-0.0062 0.0015,-0.0083c0.0001,-0.001 0.0003,-0.0019 0.0003,-0.0025c0.0001,-0.0003 0.0001,-0.0006 0.0002,-0.0008c0,-0.0002 0,-0.0003 0,-0.0003c0,-0.0001 0,-0.0001 0,-0.0002c0,0 0,0 0,0c0,0 0,0 0,0c0,-0.0001 0,-0.0001 -0.0496,-0.0062c-0.0496,-0.0062 -0.0496,-0.0062 -0.0496,-0.0062c0,0 0,-0.0001 0,-0.0001c0,0 0,0 0,0c0,0 0,0 0,-0.0001c0,0 0,0 0,-0.0001c0,0 0,0 0,0.0001c0,0.0001 0,0.0004 -0.0001,0.0008c-0.0002,0.001 -0.0004,0.0025 -0.0008,0.0046c-0.0008,0.0041 -0.0022,0.0103 -0.0044,0.0177c-0.0045,0.015 -0.0118,0.0331 -0.023,0.049l0.0816,0.0578zm-0.1846,0.0024c-0.0053,0.0497 -0.0053,0.0497 -0.0053,0.0497c0,0 0,0 0,0.0001c0,0 0.0001,0 0.0001,0c0,0 0.0001,0 0.0001,0c0.0001,0 0.0003,0 0.0004,0c0.0004,0 0.0008,0.0001 0.0013,0.0001c0.0011,0.0001 0.0026,0.0003 0.0044,0.0004c0.0037,0.0003 0.0089,0.0006 0.0151,0.0009c0.0123,0.0005 0.0295,0.0007 0.048,-0.0007c0.0182,-0.0014 0.0397,-0.0044 0.06,-0.0112c0.0197,-0.0065 0.044,-0.0185 0.0605,-0.0417l-0.0816,-0.0578c0.0011,-0.0016 -0.0003,0.0012 -0.0105,0.0047c-0.0095,0.0031 -0.022,0.0052 -0.0359,0.0063c-0.0136,0.001 -0.0266,0.0009 -0.0364,0.0005c-0.0049,-0.0002 -0.0088,-0.0005 -0.0114,-0.0007c-0.0013,-0.0001 -0.0023,-0.0002 -0.0029,-0.0002c-0.0003,-0.0001 -0.0005,-0.0001 -0.0006,-0.0001c-0.0001,0 -0.0001,0 -0.0001,0c0,0 0,0 0,0c0,0 0,0 0.0001,0c0,0 0,0 0,0c0,0 0,0 -0.0053,0.0497zm-2.8823,0.0502l2.8823,-0.0002l0,-0.1l-2.8823,0.0002l0,0.1zm-2.0501,0.0148l2.0505,-0.0148l-0.0007,-0.1l-2.0505,0.0148l0.0007,0.1zm-0.1461,-0.0377c0.0326,0.0269 0.073,0.0349 0.1,0.0375c0.0142,0.0013 0.0267,0.0013 0.0357,0.001c0.0046,-0.0002 0.0083,-0.0005 0.011,-0.0007c0.0014,-0.0001 0.0025,-0.0002 0.0034,-0.0003c0.0004,0 0.0008,-0.0001 0.001,-0.0001c0.0002,0 0.0003,0 0.0004,-0.0001c0.0001,0 0.0001,0 0.0002,0c0,0 0,0 0,0c0,0 0.0001,0 0.0001,0c0,0 0,0 -0.0061,-0.0496c-0.006,-0.0497 -0.006,-0.0497 -0.006,-0.0497c0,0 0,0 0,0c0,0 0,0 0.0001,0c0,0 0,0 0,0c0.0001,0 0.0001,0 0.0001,0c0,0 0,0 -0.0002,0c-0.0002,0.0001 -0.0006,0.0001 -0.0013,0.0002c-0.0014,0.0001 -0.0035,0.0002 -0.0064,0.0003c-0.0057,0.0002 -0.0137,0.0002 -0.0227,-0.0006c-0.0194,-0.0018 -0.0359,-0.0069 -0.0456,-0.015l-0.0637,0.0771zm-0.0323,-0.1617c-0.0486,0.0121 -0.0486,0.0121 -0.0486,0.0121c0,0 0.0001,0 0.0001,0c0,0 0,0 0,0c0,0.0001 0,0.0001 0,0.0002c0,0 0,0.0002 0.0001,0.0003c0,0.0002 0.0001,0.0006 0.0002,0.001c0.0003,0.0009 0.0006,0.0021 0.001,0.0035c0.0008,0.0029 0.0019,0.007 0.0035,0.0119c0.003,0.0099 0.0075,0.0235 0.0136,0.0384c0.0112,0.0275 0.0311,0.0684 0.0624,0.0943l0.0637,-0.0771c-0.0109,-0.009 -0.0231,-0.0296 -0.0335,-0.055c-0.0047,-0.0115 -0.0083,-0.0222 -0.0107,-0.03c-0.0012,-0.0039 -0.002,-0.0069 -0.0026,-0.009c-0.0003,-0.001 -0.0005,-0.0018 -0.0006,-0.0022c-0.0001,-0.0003 -0.0001,-0.0004 -0.0001,-0.0005c0,0 0,0 0,0c0,0 0,0 0,0c0,0 0,0 0,0c0,0 0,0 0,0c0,0 0,0 -0.0485,0.0121zm-0.05,-0.1507l0,0.1507l0.1,0l0,-0.1507l-0.1,0zm0.0757,-0.2437c-0.0483,0.0581 -0.0671,0.1205 -0.0738,0.1677c-0.0034,0.0237 -0.0038,0.0438 -0.0034,0.0584c0.0002,0.0073 0.0007,0.0132 0.0011,0.0175c0.0002,0.0021 0.0004,0.0039 0.0006,0.0052c0.0001,0.0007 0.0002,0.0012 0.0002,0.0017c0.0001,0.0002 0.0001,0.0004 0.0001,0.0006c0,0 0,0.0001 0,0.0002c0,0 0.0001,0 0.0001,0.0001c0,0 0,0 0,0c0,0 0,0.0001 0.0494,-0.0077c0.0494,-0.0077 0.0494,-0.0077 0.0494,-0.0076c0,0 0,0 0,0c0,0 0,0 0,0.0001c0,0 0,0 0,0.0001c0,0 0,0.0001 0,0.0001c0,0 0,-0.0001 0,-0.0003c-0.0001,-0.0004 -0.0002,-0.0012 -0.0003,-0.0023c-0.0002,-0.0023 -0.0005,-0.006 -0.0006,-0.0109c-0.0003,-0.0097 -0.0001,-0.024 0.0024,-0.041c0.0048,-0.0341 0.0181,-0.0776 0.0517,-0.118l-0.0769,-0.0639zm0.4497,-0.078c-0.0017,-0.05 -0.0017,-0.05 -0.0017,-0.05c0,0 0,0 0,0c-0.0001,0 -0.0001,0 -0.0001,0c-0.0001,0 -0.0001,0 -0.0002,0c-0.0002,0 -0.0005,0 -0.0009,0c-0.0007,0.0001 -0.0017,0.0001 -0.003,0.0002c-0.0026,0.0001 -0.0063,0.0003 -0.0111,0.0005c-0.0096,0.0006 -0.0232,0.0014 -0.0397,0.0028c-0.0331,0.0026 -0.0782,0.0073 -0.1263,0.0152c-0.0477,0.0078 -0.0998,0.019 -0.146,0.0353c-0.0447,0.0157 -0.0913,0.0386 -0.1207,0.074l0.0769,0.0639c0.0116,-0.0139 0.0368,-0.0294 0.077,-0.0435c0.0385,-0.0136 0.0842,-0.0237 0.129,-0.0311c0.0446,-0.0073 0.0869,-0.0116 0.1182,-0.0142c0.0155,-0.0012 0.0283,-0.002 0.0371,-0.0025c0.0044,-0.0003 0.0078,-0.0004 0.01,-0.0005c0.0012,-0.0001 0.002,-0.0001 0.0026,-0.0001c0.0002,0 0.0004,-0.0001 0.0006,-0.0001c0,0 0.0001,0 0.0001,0c0,0 0,0 0,0c0,0 0,0 0,0c0,0 0,0 -0.0018,-0.0499zm0.9486,-0.876c-0.1281,0.275 -0.364,0.7751 -0.9529,0.8262l0.0087,0.0996c0.6524,-0.0566 0.9093,-0.6142 1.0349,-0.8836l-0.0907,-0.0422zm0.0268,-0.0569c-0.0084,0.0174 -0.0173,0.0366 -0.0268,0.0568l0.0907,0.0423c0.0095,-0.0204 0.0181,-0.039 0.0262,-0.0558l-0.0901,-0.0433zm-0.5256,-1.9286c0.3058,0.7534 0.4692,1.1719 0.5399,1.4372c0.0351,0.132 0.0462,0.2224 0.0418,0.2951c-0.0044,0.0717 -0.024,0.1294 -0.0561,0.1963l0.0901,0.0433c0.0355,-0.0738 0.0604,-0.1446 0.0658,-0.2335c0.0054,-0.0878 -0.0085,-0.1899 -0.045,-0.327c-0.0727,-0.2728 -0.239,-0.6981 -0.5439,-1.449l-0.0926,0.0376zm-0.6043,-1.2667c0.0066,0.0016 0.0247,0.0111 0.0563,0.0544c0.0304,0.0416 0.0678,0.1067 0.1159,0.2044c0.0961,0.195 0.2305,0.5113 0.4321,1.0079l0.0926,-0.0376c-0.2014,-0.4962 -0.3371,-0.8157 -0.435,-1.0145c-0.0488,-0.0992 -0.0893,-0.1705 -0.1248,-0.2192c-0.0343,-0.0469 -0.0702,-0.0817 -0.1126,-0.0924l-0.0245,0.097zm-2.3712,-0.0128c0.6211,-0.0047 1.1996,-0.0055 1.6314,-0.0029c0.2159,0.0013 0.395,0.0034 0.5242,0.0063c0.0647,0.0014 0.1166,0.0031 0.1543,0.0049c0.0189,0.0009 0.0339,0.0018 0.0449,0.0027c0.0124,0.001 0.0167,0.0018 0.0164,0.0018l0.0245,-0.097c-0.0088,-0.0022 -0.021,-0.0035 -0.0325,-0.0044c-0.0128,-0.0011 -0.0291,-0.0021 -0.0486,-0.003c-0.0389,-0.0019 -0.0918,-0.0035 -0.1567,-0.005c-0.1301,-0.0029 -0.3097,-0.005 -0.5259,-0.0063c-0.4323,-0.0026 -1.0114,-0.0018 -1.6328,0.0029l0.0008,0.1zm-2.2588,0.0172l2.2588,-0.0172l-0.0007,-0.1l-2.2589,0.0172l0.0008,0.1zm-0.0885,0.3384l0.1351,-0.3713l-0.094,-0.0342l-0.1351,0.3713l0.094,0.0342zm-0.7876,2.4211c0.0254,-0.1402 0.124,-0.4756 0.2664,-0.9135c0.1419,-0.4364 0.326,-0.9711 0.5212,-1.5076l-0.094,-0.0342c-0.1955,0.5375 -0.3801,1.0732 -0.5223,1.5108c-0.1418,0.4362 -0.2428,0.7784 -0.2697,0.9267l0.0984,0.0178zm0.8624,1.2946c-0.4181,-0.0549 -0.6554,-0.2386 -0.7784,-0.4727c-0.1245,-0.2371 -0.1362,-0.5344 -0.084,-0.8219l-0.0984,-0.0178c-0.0543,0.2993 -0.045,0.6218 0.0939,0.8862c0.1404,0.2674 0.4089,0.4669 0.8538,0.5254l0.0131,-0.0992zm0.429,0.1181c-0.0288,-0.0216 -0.072,-0.0385 -0.1145,-0.0519c-0.0442,-0.0138 -0.0939,-0.0257 -0.1401,-0.0354c-0.0463,-0.0098 -0.0897,-0.0174 -0.1215,-0.0226c-0.016,-0.0026 -0.029,-0.0047 -0.0382,-0.006c-0.0045,-0.0007 -0.0081,-0.0012 -0.0106,-0.0016c-0.0012,-0.0001 -0.0021,-0.0003 -0.0028,-0.0004c-0.0003,0 -0.0006,0 -0.0007,-0.0001c-0.0001,0 -0.0002,0 -0.0002,0c-0.0001,0 -0.0001,0 -0.0001,0c0,0 0,0 0,0c0,0 0,0 -0.0068,0.0495c-0.0069,0.0496 -0.0069,0.0496 -0.0069,0.0496c0,0 0,0 0,0c0,0 0.0001,0 0.0001,0c0,0 0,0 0.0001,0c0.0001,0 0.0003,0 0.0006,0.0001c0.0006,0 0.0015,0.0002 0.0026,0.0003c0.0023,0.0004 0.0056,0.0008 0.01,0.0015c0.0087,0.0013 0.0213,0.0032 0.0367,0.0058c0.0309,0.005 0.0728,0.0124 0.1172,0.0217c0.0445,0.0094 0.0908,0.0205 0.1306,0.033c0.0415,0.0131 0.0703,0.0259 0.0842,0.0364l0.0603,-0.0799zm0.0852,0.2694c0.0492,-0.0089 0.0492,-0.0089 0.0492,-0.0089c0,0 -0.0001,0 -0.0001,-0.0001c0,0 0,0 0,0c0,-0.0001 0,-0.0001 0,-0.0002c0,-0.0001 -0.0001,-0.0003 -0.0001,-0.0005c-0.0001,-0.0005 -0.0002,-0.001 -0.0003,-0.0018c-0.0003,-0.0014 -0.0007,-0.0035 -0.0013,-0.0061c-0.0011,-0.0052 -0.0027,-0.0125 -0.005,-0.0214c-0.0044,-0.0177 -0.0113,-0.0421 -0.0212,-0.0688c-0.0188,-0.0511 -0.0517,-0.1202 -0.1064,-0.1616l-0.0603,0.0799c0.0306,0.0231 0.0554,0.0687 0.0729,0.1162c0.0083,0.0226 0.0142,0.0435 0.0181,0.0587c0.0019,0.0076 0.0032,0.0137 0.0041,0.0178c0.0004,0.002 0.0007,0.0036 0.0009,0.0046c0.0001,0.0005 0.0002,0.0008 0.0002,0.001c0.0001,0.0001 0.0001,0.0002 0.0001,0.0002c0,0 0,0 0,0c0,0 0,0 0,0c0,0 0,0 0,0c0,0 0,-0.0001 0.0492,-0.009zm0.05,0.1521l0,-0.1521l-0.1,0l0,0.1521l0.1,0zm-0.0931,0.1596c0.0368,-0.0305 0.0594,-0.0676 0.0728,-0.096c0.0068,-0.0143 0.0114,-0.0269 0.0144,-0.0361c0.0015,-0.0046 0.0026,-0.0085 0.0033,-0.0113c0.0004,-0.0014 0.0007,-0.0025 0.0009,-0.0034c0.0001,-0.0005 0.0002,-0.0008 0.0003,-0.0011c0,-0.0002 0.0001,-0.0003 0.0001,-0.0004c0,-0.0001 0,-0.0001 0,-0.0002c0,0 0,0 0,-0.0001c0,0 0,0 0,0c0,0 0,0 -0.0487,-0.011c-0.0488,-0.0109 -0.0488,-0.011 -0.0488,-0.011c0,0 0,0 0,0c0,0 0,0 0,0c0,-0.0001 0,-0.0001 0,-0.0001c0,-0.0001 0,-0.0001 0,-0.0001c0,0 0,0 0,0.0001c0,0.0002 -0.0001,0.0006 -0.0003,0.0013c-0.0004,0.0013 -0.001,0.0036 -0.002,0.0065c-0.0019,0.0059 -0.005,0.0144 -0.0096,0.0243c-0.0095,0.02 -0.0243,0.0434 -0.0463,0.0616l0.0639,0.077zm-0.2432,-0.0075c-0.0057,0.0497 -0.0057,0.0497 -0.0057,0.0497c0,0 0,0 0,0c0,0 0,0 0.0001,0c0,0 0.0001,0 0.0001,0c0.0001,0 0.0003,0 0.0005,0.0001c0.0004,0 0.0009,0.0001 0.0016,0.0001c0.0013,0.0002 0.0032,0.0004 0.0056,0.0006c0.0047,0.0004 0.0114,0.0009 0.0196,0.0014c0.0163,0.001 0.0389,0.0018 0.0636,0.0009c0.0246,-0.0009 0.0526,-0.0035 0.0793,-0.0097c0.026,-0.0059 0.0552,-0.0163 0.0785,-0.0356l-0.0639,-0.077c-0.0061,0.0051 -0.0179,0.0108 -0.037,0.0152c-0.0184,0.0042 -0.0396,0.0064 -0.0605,0.0071c-0.0207,0.0008 -0.0399,0.0001 -0.0541,-0.0007c-0.007,-0.0004 -0.0126,-0.0009 -0.0165,-0.0012c-0.0019,-0.0002 -0.0033,-0.0003 -0.0042,-0.0004c-0.0005,-0.0001 -0.0008,-0.0001 -0.001,-0.0001c-0.0001,0 -0.0002,-0.0001 -0.0002,-0.0001c0,0 0,0 0,0c0,0 0,0 0,0c0,0 0,0 0,0c0,0 0,0 -0.0058,0.0497zm-2.1559,0.05l2.1559,0l0,-0.1l-2.1559,0l0,0.1zm-2.0853,0.0237l2.0858,-0.0237l-0.0011,-0.1l-2.0858,0.0237l0.0011,0.1zm-0.1788,-0.0428c0.0399,0.0212 0.0848,0.0316 0.1176,0.0368c0.0168,0.0027 0.0314,0.0042 0.0418,0.005c0.0052,0.0004 0.0095,0.0007 0.0125,0.0008c0.0015,0.0001 0.0027,0.0001 0.0036,0.0002c0.0004,0 0.0008,0 0.001,0c0.0002,0 0.0003,0 0.0004,0c0,0 0.0001,0 0.0001,0c0,0 0,0 0.0001,0c0,0 0,0 0,0c0,0 0,0 0.0012,-0.05c0.0011,-0.0499 0.0011,-0.0499 0.0012,-0.0499c0,0 0,0 0,0c0,0 0,0 0,0c0,0 0,0 0,0c0,0 0,0 0,0c-0.0001,0 -0.0002,-0.0001 -0.0005,-0.0001c-0.0004,0 -0.0012,0 -0.0023,-0.0001c-0.0021,-0.0001 -0.0053,-0.0002 -0.0094,-0.0006c-0.0084,-0.0006 -0.0202,-0.0018 -0.0339,-0.004c-0.0281,-0.0045 -0.0607,-0.0127 -0.0866,-0.0264l-0.0468,0.0883zm-0.0529,-0.1491c-0.0495,0.0075 -0.0495,0.0075 -0.0495,0.0075c0,0 0.0001,0.0001 0.0001,0.0001c0,0 0,0 0,0.0001c0,0 0,0.0001 0,0.0002c0,0.0001 0,0.0003 0.0001,0.0005c0,0.0003 0.0001,0.0008 0.0002,0.0013c0.0002,0.0009 0.0004,0.0022 0.0007,0.0037c0.0007,0.003 0.0016,0.007 0.003,0.0118c0.0026,0.0095 0.0071,0.0223 0.0141,0.0365c0.0141,0.0283 0.0396,0.0638 0.0842,0.0874l0.0468,-0.0883c-0.0211,-0.0112 -0.0338,-0.0282 -0.0414,-0.0436c-0.0038,-0.0077 -0.0062,-0.0146 -0.0075,-0.0193c-0.0007,-0.0024 -0.0011,-0.0041 -0.0013,-0.0051c-0.0001,-0.0005 -0.0002,-0.0007 -0.0002,-0.0008c0,0 0,0 0.0001,0.0001c0,0.0001 0,0.0001 0,0.0002c0,0 0,0.0001 0,0.0001c0,0.0001 0,0.0001 0,0.0001c0,0 0,0 0,0c0,0.0001 0,0.0001 -0.0494,0.0075zm-0.05,-0.1445l0,0.1445l0.1,0l0,-0.1445l-0.1,0zm0.1197,-0.2441c-0.0637,0.0629 -0.0944,0.1222 -0.1086,0.1681c-0.0071,0.0228 -0.0099,0.0419 -0.0109,0.056c-0.0005,0.0071 -0.0006,0.0129 -0.0005,0.0172c0.0001,0.0022 0.0002,0.0041 0.0003,0.0055c0.0001,0.0008 0.0001,0.0014 0.0002,0.0019c0,0.0003 0,0.0006 0.0001,0.0008c0,0.0001 0,0.0002 0,0.0003c0,0.0001 0,0.0001 0,0.0002c0,0 0,0 0,0c0,0.0001 0,0.0001 0.0497,-0.0059c0.0496,-0.006 0.0496,-0.0059 0.0496,-0.0059c0,0 0,0.0001 0,0.0001c0,0 0,0.0001 0.0001,0.0001c0,0.0001 0,0.0001 0,0.0002c0,0.0001 0,0.0003 0,0.0003c0,0.0002 0,0.0003 0,0.0004c0,0 0,-0.0003 0,-0.0009c0,-0.0012 0,-0.0036 0.0002,-0.0072c0.0005,-0.007 0.0021,-0.0186 0.0067,-0.0336c0.0092,-0.0296 0.031,-0.0747 0.0834,-0.1265l-0.0703,-0.0711zm0.4648,-0.1099c-0.0049,-0.0498 -0.0049,-0.0498 -0.0049,-0.0498c0,0 0,0 0,0c0,0 -0.0001,0 -0.0001,0c-0.0001,0 -0.0001,0.0001 -0.0002,0.0001c-0.0002,0 -0.0005,0 -0.0008,0c-0.0007,0.0001 -0.0017,0.0002 -0.003,0.0004c-0.0025,0.0002 -0.0061,0.0006 -0.0107,0.0012c-0.0092,0.0011 -0.0224,0.0028 -0.0385,0.0052c-0.0322,0.0049 -0.0764,0.0125 -0.1246,0.0239c-0.048,0.0114 -0.1009,0.0268 -0.1499,0.0472c-0.0485,0.0201 -0.0965,0.0465 -0.1321,0.0817l0.0703,0.0711c0.0225,-0.0222 0.0572,-0.0426 0.1002,-0.0605c0.0424,-0.0176 0.0897,-0.0315 0.1346,-0.0421c0.0447,-0.0107 0.0861,-0.0178 0.1163,-0.0224c0.0151,-0.0022 0.0273,-0.0038 0.0357,-0.0048c0.0042,-0.0005 0.0074,-0.0009 0.0096,-0.0011c0.001,-0.0001 0.0018,-0.0002 0.0023,-0.0003c0.0003,0 0.0005,0 0.0006,0c0,0 0.0001,0 0.0001,-0.0001c0,0 0,0 0,0c0,0 0,0 0,0c0,0 0,0 -0.0049,-0.0497zm1.0348,-1.0714c-0.0931,0.1751 -0.2181,0.4095 -0.3893,0.6117c-0.1712,0.202 -0.3847,0.3671 -0.6534,0.4103l0.0159,0.0988c0.3014,-0.0486 0.5345,-0.2328 0.7138,-0.4445c0.1792,-0.2115 0.3086,-0.4552 0.4013,-0.6293l-0.0883,-0.047zm0.0392,-0.0731c-0.0124,0.0228 -0.0255,0.0474 -0.0392,0.0731l0.0883,0.047c0.0138,-0.0258 0.0266,-0.05 0.0388,-0.0725l-0.0879,-0.0476zm0.7358,-1.7582c-0.1661,0.4167 -0.3322,0.8233 -0.4659,1.1426c-0.1343,0.3209 -0.2346,0.5503 -0.2699,0.6156l0.0879,0.0476c0.0383,-0.0708 0.141,-0.3061 0.2743,-0.6246c0.1339,-0.3199 0.3002,-0.727 0.4665,-1.1441l-0.0929,-0.0371zm0.8291,-2.07319c-0.1236,0.30642 -0.4967,1.23939 -0.8291,2.07319l0.0929,0.0371c0.3324,-0.8339 0.7054,-1.76668 0.8289,-2.07288l-0.0927,-0.03741zm1.4236,-3.55795c-0.6044,1.51877 -1.0036,2.51653 -1.4236,3.55795l0.0927,0.03741c0.4201,-1.04162 0.8194,-2.03953 1.4238,-3.55839l-0.0929,-0.03697zm1.0917,-2.73526c-0.2686,0.67053 -0.7599,1.90138 -1.0917,2.73526l0.0929,0.03697c0.3318,-0.83382 0.8231,-2.0646 1.0916,-2.73504l-0.0928,-0.03719zm0.4883,-1.21909l-0.4883,1.21909l0.0928,0.03719l0.4883,-1.2191l-0.0928,-0.03718zm0.7016,-0.3761l-0.6782,0.35026l0.0459,0.08885l0.6781,-0.35026l-0.0458,-0.08885zm0.2471,3.87039c-0.091,-0.221 -0.251,-0.61759 -0.3556,-0.8811l-0.0929,0.03688c0.1046,0.26384 0.2649,0.66083 0.356,0.88228l0.0925,-0.03806zm0.5664,1.39259c-0.2203,-0.54455 -0.4753,-1.17122 -0.5664,-1.3926l-0.0925,0.03808c0.091,0.22107 0.3459,0.84748 0.5662,1.39204l0.0927,-0.03752zm0.6017,1.47217c-0.1106,-0.26516 -0.3813,-0.92764 -0.6017,-1.47217l-0.0927,0.03752c0.2204,0.54458 0.4913,1.20747 0.6021,1.47313l0.0923,-0.03848zm0.205,0.52976c0,-0.00852 -0.0023,-0.01651 -0.0028,-0.01822c-0.001,-0.00384 -0.0023,-0.0082 -0.0038,-0.01271c-0.003,-0.00914 -0.0072,-0.02107 -0.0124,-0.03521c-0.0104,-0.02838 -0.0253,-0.06725 -0.0436,-0.11366c-0.0366,-0.0929 -0.087,-0.217 -0.1424,-0.34996l-0.0924,0.03847c0.0553,0.13252 0.1054,0.256 0.1417,0.34815c0.0182,0.04612 0.0328,0.08415 0.0428,0.11145c0.0051,0.01371 0.0088,0.02431 0.0112,0.03171c0.0012,0.00375 0.0019,0.00617 0.0023,0.0075c0.0009,0.00347 -0.0006,-0.00092 -0.0006,-0.00752l0.1,0zm-1.8948,0.07798c0.5074,0 0.9689,-0.00315 1.3036,-0.00822c0.1673,-0.00254 0.3032,-0.00556 0.3974,-0.00892c0.047,-0.00168 0.0841,-0.00346 0.1098,-0.00535c0.0126,-0.00093 0.0235,-0.00196 0.0317,-0.00318c0.0038,-0.00056 0.009,-0.00144 0.0141,-0.00294c0.0021,-0.00065 0.0074,-0.00228 0.0131,-0.00566c0.0017,-0.00101 0.0251,-0.01416 0.0251,-0.04371l-0.1,0c0,-0.02907 0.0229,-0.04174 0.0238,-0.04227c0.0049,-0.00291 0.0089,-0.00406 0.0095,-0.00423c0.0019,-0.00055 0.0023,-0.00049 -0.0003,-0.00011c-0.0044,0.00066 -0.0123,0.00148 -0.0244,0.00237c-0.0237,0.00175 -0.0593,0.00347 -0.106,0.00514c-0.0932,0.00333 -0.2282,0.00634 -0.3953,0.00887c-0.3341,0.00506 -0.795,0.00821 -1.3021,0.00821l0,0.1zm-1.8948,-0.11066c0,0.02129 0.012,0.035 0.0189,0.04105c0.007,0.00616 0.0144,0.00979 0.0192,0.01186c0.01,0.00432 0.0219,0.00734 0.0333,0.00968c0.0237,0.00485 0.057,0.00906 0.0985,0.01284c0.0834,0.00762 0.206,0.01404 0.364,0.01923c0.3164,0.01041 0.7783,0.016 1.3609,0.016l0,-0.1c-0.5822,0 -1.0428,-0.00559 -1.3576,-0.01594c-0.1575,-0.00518 -0.2778,-0.01153 -0.3582,-0.01888c-0.0406,-0.00369 -0.0694,-0.00751 -0.0875,-0.01122c-0.0044,-0.0009 -0.0078,-0.00172 -0.0103,-0.00242c-0.0026,-0.00073 -0.0036,-0.00116 -0.0035,-0.00113c0,0.00004 0.0007,0.00034 0.0018,0.00098c0.0011,0.00061 0.0031,0.00187 0.0055,0.00399c0.0042,0.00372 0.015,0.01506 0.015,0.03396l-0.1,0zm0.0898,-0.31133c-0.0242,0.06513 -0.0462,0.13137 -0.0623,0.18584c-0.008,0.0272 -0.0147,0.0519 -0.0194,0.0723c-0.0044,0.01883 -0.0081,0.03847 -0.0081,0.05319l0.1,0c0,0.00019 0,-0.00044 0.0001,-0.00216c0.0002,-0.00164 0.0005,-0.00385 0.001,-0.00667c0.0009,-0.00568 0.0024,-0.01298 0.0044,-0.02188c0.0041,-0.01778 0.0102,-0.04041 0.0179,-0.06648c0.0154,-0.05207 0.0367,-0.11612 0.0601,-0.17932l-0.0937,-0.03482zm1.29,-3.69232c-0.8361,2.40634 -1.2144,3.48888 -1.29,3.6923l0.0937,0.03485c0.0762,-0.20475 0.455,-1.28892 1.2908,-3.69433l-0.0945,-0.03282zm0.2703,-0.73722c-0.0043,0.00728 -0.0094,0.01909 -0.0143,0.03072c-0.0054,0.01302 -0.0121,0.03009 -0.02,0.05056c-0.0159,0.04099 -0.0366,0.09659 -0.0607,0.1627c-0.0484,0.13227 -0.1107,0.30731 -0.1753,0.49324l0.0945,0.03282c0.0645,-0.18555 0.1266,-0.36007 0.1747,-0.49174c0.0241,-0.06587 0.0445,-0.12083 0.0601,-0.16103c0.0077,-0.02012 0.0141,-0.03631 0.0191,-0.0482c0.0055,-0.01328 0.0079,-0.01804 0.0079,-0.01801l-0.086,-0.05106zm0.4108,0.49793c-0.0946,-0.2386 -0.1621,-0.39114 -0.2146,-0.47134c-0.0134,-0.02045 -0.027,-0.0381 -0.0412,-0.05176c-0.0138,-0.01332 -0.0315,-0.026 -0.0531,-0.0307c-0.024,-0.00521 -0.0464,0.00076 -0.0645,0.01327c-0.0163,0.01133 -0.0283,0.0273 -0.0374,0.04259l0.086,0.05108c0.0056,-0.00948 0.0087,-0.01173 0.0083,-0.01145c-0.0021,0.00146 -0.0076,0.00354 -0.0136,0.00224c-0.0037,-0.00079 -0.0021,-0.00176 0.005,0.00503c0.0067,0.00647 0.0157,0.01735 0.0269,0.03448c0.0459,0.0701 0.1097,0.21252 0.2053,0.45343l0.0929,-0.03687z"/>
  <polyline stroke-linecap="round" id="svg_5" points="53.44171100754565,27.82295375124264 53.44171100754565,27.82295375124264 " stroke-width="1.5" stroke="#000" fill="none"/>
  <rect stroke="#000" id="svg_7" height="20.32085" width="57.8877" y="27.02081" x="0.76792" stroke-width="1.5" fill="#fff"/>
  <rect stroke="#000" id="svg_10" height="15.90909" width="56.68448" y="-74" x="42.31552" fill-opacity="null" stroke-opacity="null" stroke-width="NaN" fill="none"/>
  <text stroke="#000" transform="matrix(5.748742408712587,0,0,1.218761065100324,-536.966675560311,-5.154672952996361) " xml:space="preserve" text-anchor="start" font-family="Helvetica, Arial, sans-serif" font-size="24" id="svg_13" y="18.18564" x="99.75716" fill-opacity="null" stroke-opacity="null" stroke-width="0" fill="#000000"/>
  <rect stroke="#000" id="svg_19" height="28.34224" width="56.81818" y="-5.33212" x="42.21176" fill-opacity="null" stroke-opacity="null" stroke-dasharray="2,2" stroke-width="0" fill="#fff"/>
  <text stroke="#000" transform="matrix(0.7737649146507892,0,0,0.7924048201295691,5.093777791746446,8.265745663644614) " xml:space="preserve" text-anchor="start" font-family="'Palatino Linotype', 'Book Antiqua', Palatino, serif" font-size="24" id="svg_20" y="7.80978" x="47.21419" fill-opacity="null" stroke-opacity="null" stroke-dasharray="2,2" stroke-width="0" fill="#000000">CHAD</text>
 </g>
</svg>